<svg width="20" height="20" viewBox="0 0 20 20" fill="none" xmlns="http://www.w3.org/2000/svg">
<path d="M14.8658 1.66675H5.13487C4.6956 1.66673 4.31661 1.66672 4.00447 1.69222C3.67502 1.71914 3.34733 1.77857 3.03202 1.93923C2.56161 2.17892 2.17916 2.56137 1.93948 3.03177C1.77882 3.34709 1.71939 3.67477 1.69247 4.00423C1.66697 4.31636 1.66698 4.69532 1.66699 5.1346V9.9094C1.66699 10.2704 1.66699 10.4509 1.74143 10.615C1.8017 10.7478 1.92342 10.8895 2.04568 10.9691C2.19669 11.0674 2.35248 11.0911 2.66407 11.1386C3.16112 11.2143 3.66452 11.25 4.16696 11.25C6.92169 11.25 9.41643 10.1367 11.2258 8.33342H10.0003C9.54009 8.33342 9.16699 7.96032 9.16699 7.50008C9.16699 7.03984 9.54009 6.66675 10.0003 6.66675H13.3337C13.7939 6.66675 14.167 7.03984 14.167 7.50008V10.8334C14.167 11.2937 13.7939 11.6667 13.3337 11.6667C12.8734 11.6667 12.5003 11.2937 12.5003 10.8334V9.4149C10.3835 11.575 7.43196 12.9167 4.16696 12.9167C3.87697 12.9167 3.58934 12.9061 3.30446 12.8853C2.66944 12.8388 2.35194 12.8156 2.16043 12.9012C1.97731 12.983 1.86123 13.0909 1.76629 13.2675C1.66699 13.4523 1.66699 13.7362 1.66699 14.304V14.8655C1.66698 15.3048 1.66697 15.6838 1.69247 15.9959C1.71939 16.3254 1.77882 16.6531 1.93948 16.9684C2.17916 17.4388 2.56161 17.8212 3.03202 18.0609C3.34733 18.2216 3.67502 18.281 4.00447 18.3079C4.31661 18.3334 4.69557 18.3334 5.13486 18.3334H14.8658C15.3051 18.3334 15.684 18.3334 15.9962 18.3079C16.3256 18.281 16.6533 18.2216 16.9686 18.0609C17.439 17.8212 17.8215 17.4388 18.0612 16.9684C18.2218 16.6531 18.2813 16.3254 18.3082 15.9959C18.3337 15.6838 18.3337 15.3048 18.3337 14.8656V5.13461C18.3337 4.69533 18.3337 4.31637 18.3082 4.00423C18.2813 3.67477 18.2218 3.34709 18.0612 3.03177C17.8215 2.56137 17.439 2.17892 16.9686 1.93923C16.6533 1.77857 16.3256 1.71914 15.9962 1.69222C15.684 1.66672 15.3051 1.66673 14.8658 1.66675Z" fill="#735FFA"/>
</svg>
