<svg width="20" height="20" viewBox="0 0 20 20" fill="none" xmlns="http://www.w3.org/2000/svg">
<path fill-rule="evenodd" clip-rule="evenodd" d="M9.99967 0.833252C4.93706 0.833252 0.833008 4.93731 0.833008 9.99992C0.833008 15.0625 4.93706 19.1666 9.99967 19.1666C15.0623 19.1666 19.1663 15.0625 19.1663 9.99992C19.1663 4.93731 15.0623 0.833252 9.99967 0.833252ZM8.5056 8.08917C8.83103 7.76374 8.83103 7.2361 8.5056 6.91066C8.18016 6.58523 7.65252 6.58523 7.32709 6.91066L4.82709 9.41066C4.50165 9.7361 4.50165 10.2637 4.82709 10.5892L7.32709 13.0892C7.65252 13.4146 8.18016 13.4146 8.5056 13.0892C8.83103 12.7637 8.83103 12.2361 8.5056 11.9107L6.59485 9.99992L8.5056 8.08917ZM12.6723 6.91066C12.3468 6.58523 11.8192 6.58523 11.4938 6.91066C11.1683 7.2361 11.1683 7.76374 11.4938 8.08917L13.4045 9.99992L11.4938 11.9107C11.1683 12.2361 11.1683 12.7637 11.4938 13.0892C11.8192 13.4146 12.3468 13.4146 12.6723 13.0892L15.1723 10.5892C15.4977 10.2637 15.4977 9.7361 15.1723 9.41066L12.6723 6.91066Z" fill="#4BAB71"/>
</svg>
