<svg xmlns="http://www.w3.org/2000/svg" width="20" height="20" xmlns:v="https://vecta.io/nano"><path d="M15.839 0H4.161L2.805.031c-.395.032-.789.104-1.167.296A3 3 0 0 0 .327 1.638c-.193.378-.264.772-.296 1.167C0 3.18 0 3.634 0 4.161v11.677l.031 1.356c.032.395.104.789.296 1.167a3 3 0 0 0 1.311 1.311c.378.193.772.264 1.167.296.375.031.829.031 1.356.031h11.677l1.356-.031c.395-.032.789-.104 1.167-.296a3 3 0 0 0 1.311-1.311c.193-.378.264-.772.296-1.167.031-.375.031-.829.031-1.356V4.161l-.031-1.356c-.032-.395-.104-.789-.296-1.167A3 3 0 0 0 18.362.327c-.378-.193-.772-.264-1.167-.296C16.82 0 16.366 0 15.839 0zm-.631 7.707a1 1 0 0 0-1.414-1.414L8.5 11.586 6.207 9.293a1 1 0 1 0-1.414 1.414l3 3a1 1 0 0 0 1.414 0l6-6z" fill="#4bab71" fill-rule="evenodd"/></svg>