<svg xmlns="http://www.w3.org/2000/svg" width="32" height="32" fill="none" xmlns:v="https://vecta.io/nano"><path fill-rule="evenodd" d="M16 1.333A14.67 14.67 0 0 0 1.333 16 14.67 14.67 0 0 0 16 30.667 14.67 14.67 0 0 0 30.666 16 14.67 14.67 0 0 0 16 1.333zm-2.391 11.609c.521-.521.521-1.365 0-1.886s-1.365-.521-1.886 0l-4 4c-.521.521-.521 1.365 0 1.886l4 4c.521.521 1.365.521 1.886 0s.521-1.365 0-1.886L10.552 16l3.057-3.057zm6.667-1.886c-.521-.521-1.365-.521-1.886 0s-.521 1.365 0 1.886L21.447 16l-3.057 3.057c-.521.521-.521 1.365 0 1.886s1.365.521 1.886 0l4-4c.521-.521.521-1.365 0-1.886l-4-4z" fill="#fcfdfe"/></svg>