<svg width="48" height="48" viewBox="0 0 48 48" fill="none" xmlns="http://www.w3.org/2000/svg">
<rect width="48" height="48" fill="#181B1F"/>
<g clip-path="url(#clip0_952_55511)">
<path fill-rule="evenodd" clip-rule="evenodd" d="M17.6328 36.4794C17.6328 35.6313 18.3231 34.9395 19.1692 34.9395H21.5741C22.4202 34.9395 23.1105 35.6313 23.1105 36.4794C23.1105 37.3275 22.4202 38.0193 21.5741 38.0193H19.1692C18.3231 38.0193 17.6328 37.3275 17.6328 36.4794Z" fill="#F49000"/>
<path fill-rule="evenodd" clip-rule="evenodd" d="M24.2656 36.4794C24.2656 35.6313 24.9559 34.9395 25.8021 34.9395H28.2069C29.053 34.9395 29.7433 35.6313 29.7433 36.4794C29.7433 37.3275 29.053 38.0193 28.2069 38.0193H25.8021C24.9559 38.0193 24.2656 37.3275 24.2656 36.4794Z" fill="#F49000"/>
<path d="M7.27333 30.6536L15.9352 14.9415C16.4028 14.1157 17.5384 13.9818 18.1842 14.6737C21.3238 18.0437 21.9473 23.1546 19.6761 27.3058C17.4048 31.4571 12.751 33.6219 8.23081 32.7292C7.29559 32.5506 6.80572 31.5016 7.27333 30.6536Z" fill="#58CC02"/>
<path d="M40.0979 30.6546L31.4359 14.9425C30.9683 14.0944 29.8328 13.9604 29.1647 14.6523C26.0251 18.0224 25.4016 23.1333 27.6729 27.2845C29.9441 31.4357 34.5978 33.6007 39.1181 32.7079C40.0755 32.5516 40.5653 31.5026 40.0979 30.6546Z" fill="#58CC02"/>
<path fill-rule="evenodd" clip-rule="evenodd" d="M17.2933 8.4023C20.4107 9.71908 22.5484 10.3886 23.7062 10.3886C24.8641 10.3886 26.9572 9.7414 30.03 8.42462C32.0564 7.5542 34.4167 8.51389 35.2851 10.5449C35.4855 11.0359 35.5968 11.5715 35.5968 12.1072V24.5831C35.5968 31.1894 30.2528 36.5458 23.6617 36.5458C17.0707 36.5234 11.7266 31.1894 11.7266 24.5831V12.0848C11.7266 9.87531 13.5079 8.08984 15.7346 8.08984C16.2691 8.08984 16.7812 8.20144 17.2933 8.4023Z" fill="#58CC02"/>
<path d="M22.7738 28.3781C22.8183 28.2218 22.707 28.0879 22.5511 28.0879H19.5451C19.3892 28.0879 19.2779 28.2442 19.3224 28.3781C19.5673 29.0699 20.2576 29.5609 21.037 29.5609C21.8163 29.5609 22.5288 29.0699 22.7738 28.3781ZM27.7839 28.0879H24.7778C24.622 28.0879 24.5106 28.2442 24.5551 28.3781C24.8001 29.0699 25.4904 29.5609 26.2697 29.5609C27.0491 29.5609 27.7615 29.0699 28.0065 28.3781C28.0511 28.2442 27.9398 28.0879 27.7839 28.0879ZM25.1564 30.61H22.1503C21.9944 30.61 21.8831 30.7661 21.9276 30.9C22.1726 31.592 22.8629 32.083 23.6422 32.083C24.4216 32.083 25.1341 31.592 25.379 30.9C25.4458 30.7661 25.3345 30.61 25.1564 30.61Z" fill="#89E219"/>
<path d="M17.987 10.2782L21.5943 14.2062C21.7947 14.4071 21.7056 14.7418 21.4607 14.8757C20.2137 15.4337 18.7441 15.1212 17.8089 14.0723C16.8737 13.0233 16.7178 11.528 17.3858 10.3451C17.5417 10.0996 17.7866 10.0773 17.987 10.2782Z" fill="#89E219"/>
<path fill-rule="evenodd" clip-rule="evenodd" d="M21.1063 13.7147C22.4201 15.0539 24.7359 15.0539 26.1832 13.7147C27.6306 12.3757 25.9606 21.4815 25.9606 21.4369C25.9606 21.4369 25.1812 21.4146 23.6225 21.4369C23.1994 21.4369 22.4424 21.4369 21.3736 21.4369C20.327 15.4109 20.2379 12.822 21.1063 13.7147Z" fill="#89E219"/>
<path d="M16.0013 11.2157L19.5194 15.166C19.7199 15.3669 19.6308 15.7016 19.3858 15.8355C18.1389 16.3935 16.6693 16.081 15.734 15.0321C14.7988 13.9831 14.643 12.4878 15.3332 11.3049C15.4668 11.0371 15.8009 11.0148 16.0013 11.2157Z" fill="#89E219"/>
<path fill-rule="evenodd" clip-rule="evenodd" d="M17.6515 12.3086H17.7851C20.3903 12.3086 22.4834 14.4288 22.4834 17.0178V19.5174C22.4834 22.1287 20.3681 24.2266 17.7851 24.2266H17.6515C15.0462 24.2266 12.9531 22.1064 12.9531 19.5174V17.0401C12.9531 14.4288 15.0462 12.3086 17.6515 12.3086Z" fill="#89E219"/>
<path d="M29.2994 10.2782L25.7588 14.2062C25.5584 14.4071 25.6475 14.7418 25.8924 14.8757C27.1395 15.4337 28.6091 15.1212 29.5442 14.0723C30.4794 13.0233 30.6353 11.528 29.9451 10.3451C29.8114 10.0996 29.4774 10.0773 29.2994 10.2782Z" fill="#89E219"/>
<path d="M31.3461 11.2157L27.8057 15.166C27.6053 15.3669 27.6944 15.7016 27.9394 15.8355C29.1862 16.3935 30.6559 16.081 31.5911 15.0321C32.5264 13.9831 32.6823 12.4878 31.992 11.3049C31.8807 11.0371 31.5466 11.0148 31.3461 11.2157Z" fill="#89E219"/>
<path fill-rule="evenodd" clip-rule="evenodd" d="M29.5189 12.3086H29.6524C32.2577 12.3086 34.3509 14.4288 34.3509 17.0178V19.5174C34.3509 22.1287 32.2353 24.2266 29.6524 24.2266H29.5411C26.9581 24.2266 24.865 22.1287 24.8428 19.5397L24.8205 17.0401C24.7982 14.4288 26.8913 12.3086 29.5189 12.3086Z" fill="#89E219"/>
<path fill-rule="evenodd" clip-rule="evenodd" d="M23.6857 19.5391C24.5986 19.5391 25.3557 20.2979 25.3557 21.2129V21.7486C25.3557 22.6636 24.5986 23.4225 23.6857 23.4225C22.7727 23.4225 22.0156 22.6636 22.0156 21.7486V21.2129C22.0156 20.2979 22.7727 19.5391 23.6857 19.5391Z" fill="#F49000"/>
<path d="M21.375 21.3245C21.5754 20.2979 22.5552 19.5391 23.713 19.5391C24.8041 19.5391 25.7616 20.3202 25.962 21.3245V21.4138C25.962 21.4808 25.9398 21.5254 25.8729 21.5031L23.713 21.8825C23.6685 21.8825 23.6685 21.8825 23.624 21.8825L21.4641 21.5031C21.3973 21.5031 21.375 21.4808 21.375 21.4138V21.3245Z" fill="#FFC200"/>
<path d="M24.1788 20.6347C24.1342 20.6347 24.112 20.6347 24.0674 20.6124C23.778 20.5007 23.5108 20.5007 23.2658 20.6124C23.0877 20.6793 22.9095 20.59 22.8428 20.4338C22.7759 20.2552 22.865 20.0767 23.0209 20.0098C23.4217 19.8535 23.8448 19.8535 24.2901 20.0098C24.4682 20.0767 24.5573 20.2552 24.4905 20.4338C24.446 20.5454 24.3124 20.6347 24.1788 20.6347Z" fill="#FFDE00"/>
<path fill-rule="evenodd" clip-rule="evenodd" d="M17.8983 14.0059C19.7019 14.0059 21.1715 15.4789 21.1715 17.2867V19.273C21.1715 21.0808 19.7019 22.5538 17.8983 22.5538C16.0946 22.5538 14.625 21.0808 14.625 19.273V17.2867C14.625 15.4789 16.0946 14.0059 17.8983 14.0059Z" fill="#FCFDFE"/>
<path fill-rule="evenodd" clip-rule="evenodd" d="M18.4114 15.8789C19.2576 15.8789 19.9478 16.5708 19.9478 17.4189V19.1151C19.9478 19.9632 19.2576 20.655 18.4114 20.655C17.5653 20.655 16.875 19.9632 16.875 19.1151V17.4189C16.875 16.5708 17.5653 15.8789 18.4114 15.8789Z" fill="#122431"/>
<path d="M17.1192 17.7997C17.6726 17.7997 18.1212 17.35 18.1212 16.7953C18.1212 16.2407 17.6726 15.791 17.1192 15.791C16.5658 15.791 16.1172 16.2407 16.1172 16.7953C16.1172 17.35 16.5658 17.7997 17.1192 17.7997Z" fill="#FCFDFE"/>
<path fill-rule="evenodd" clip-rule="evenodd" d="M29.4061 14.0059C31.2097 14.0059 32.6793 15.4789 32.6793 17.2867V19.273C32.6793 21.0808 31.2097 22.5538 29.4061 22.5538C27.6023 22.5538 26.1328 21.0808 26.1328 19.273V17.2867C26.1328 15.4789 27.6023 14.0059 29.4061 14.0059Z" fill="#FCFDFE"/>
<path fill-rule="evenodd" clip-rule="evenodd" d="M28.8958 15.8789C29.7419 15.8789 30.4322 16.5708 30.4322 17.4189V19.1151C30.4322 19.9632 29.7419 20.655 28.8958 20.655C28.0496 20.655 27.3594 19.9632 27.3594 19.1151V17.4189C27.3594 16.5708 28.0496 15.8789 28.8958 15.8789Z" fill="#122431"/>
<path d="M27.4317 17.7997C27.9851 17.7997 28.4337 17.35 28.4337 16.7953C28.4337 16.2407 27.9851 15.791 27.4317 15.791C26.8783 15.791 26.4297 16.2407 26.4297 16.7953C26.4297 17.35 26.8783 17.7997 27.4317 17.7997Z" fill="#FCFDFE"/>
<path opacity="0.3" fill-rule="evenodd" clip-rule="evenodd" d="M14.2712 38.0195H33.2426C33.7548 38.0195 34.1779 38.4436 34.1779 38.957C34.1779 39.4703 33.7548 39.8944 33.2426 39.8944H14.2712C13.759 39.8944 13.3359 39.4703 13.3359 38.957C13.3359 38.4436 13.759 38.0195 14.2712 38.0195Z" fill="#AFAFAF"/>
</g>
<defs>
<clipPath id="clip0_952_55511">
<rect width="33.3742" height="32" fill="white" transform="translate(7 8)"/>
</clipPath>
</defs>
</svg>
