<svg width="40" height="40" viewBox="0 0 40 40" fill="none" xmlns="http://www.w3.org/2000/svg">
<rect width="40" height="40" rx="12" fill="#8E55EA" fill-opacity="0.15"/>
<path d="M26.0001 10C23.791 10 22.0001 11.7909 22.0001 14C22.0001 16.2091 23.791 18 26.0001 18C28.2093 18 30.0001 16.2091 30.0001 14C30.0001 11.7909 28.2093 10 26.0001 10Z" fill="#735FFA"/>
<path d="M25.7663 19.9553C25.2758 19.7519 24.7245 19.7519 24.234 19.9553C23.8629 20.1092 23.6092 20.3766 23.4263 20.6034C23.2655 20.8028 23.0935 21.0575 22.909 21.3338L20.1155 17.2987C19.9138 17.0074 19.7259 16.7359 19.5515 16.527C19.3684 16.3077 19.1168 16.0518 18.7533 15.9041C18.2704 15.7078 17.7299 15.7078 17.247 15.9041C16.8835 16.0518 16.6319 16.3077 16.4488 16.527C16.2744 16.7359 16.0864 17.0074 15.8848 17.2987L9.89138 25.9558C9.63113 26.3317 9.39781 26.6687 9.23628 26.9546C9.07538 27.2394 8.88904 27.6326 8.91094 28.0947C8.93886 28.6837 9.2253 29.2304 9.69371 29.5887C10.0611 29.8697 10.4906 29.9403 10.8163 29.9701C11.1433 30.0001 11.5531 30 12.0103 30L27.0001 30C27.0037 30 27.0073 30 27.0109 30L28.0538 30C28.5022 30 28.9054 30 29.2278 29.9705C29.5504 29.9409 29.9736 29.8708 30.3382 29.595C30.8046 29.2422 31.0932 28.7029 31.1281 28.1192C31.1553 27.6628 30.9789 27.2718 30.8245 26.9869C30.6703 26.7023 30.4466 26.3668 30.1978 25.9937L27.1413 21.409C26.938 21.1038 26.7492 20.8207 26.574 20.6034C26.3911 20.3766 26.1374 20.1092 25.7663 19.9553Z" fill="#735FFA"/>
</svg>
