<svg width="40" height="40" viewBox="0 0 40 40" fill="none" xmlns="http://www.w3.org/2000/svg">
<path fill-rule="evenodd" clip-rule="evenodd" d="M20.7755 10.7507C21.9071 9.65773 23.4227 9.05296 24.9959 9.06663C26.5691 9.0803 28.074 9.71132 29.1864 10.8238C30.2988 11.9362 30.9299 13.4411 30.9435 15.0143C30.9572 16.5875 30.3524 18.1031 29.2595 19.2347L29.2473 19.2471L26.2474 22.2469C25.6392 22.8554 24.9072 23.326 24.101 23.6267C23.2949 23.9274 22.4336 24.0512 21.5754 23.9897C20.7172 23.9283 19.8823 23.683 19.1273 23.2705C18.3723 22.858 17.7148 22.2879 17.1994 21.5989C16.8686 21.1567 16.959 20.53 17.4012 20.1992C17.8435 19.8684 18.4702 19.9587 18.801 20.401C19.1445 20.8603 19.5829 21.2403 20.0862 21.5153C20.5896 21.7903 21.1462 21.9539 21.7183 21.9949C22.2904 22.0358 22.8646 21.9533 23.402 21.7528C23.9394 21.5523 24.4275 21.2386 24.833 20.833L27.8266 17.8393C28.5516 17.0856 28.9527 16.0777 28.9436 15.0316C28.9345 13.9829 28.5138 12.9796 27.7722 12.238C27.0306 11.4963 26.0273 11.0757 24.9785 11.0666C23.932 11.0575 22.9237 11.4589 22.1698 12.1845L20.4552 13.8891C20.0636 14.2785 19.4304 14.2767 19.041 13.885C18.6516 13.4933 18.6535 12.8602 19.0452 12.4708L20.7652 10.7608L20.7755 10.7507Z" fill="#292D32"/>
<path fill-rule="evenodd" clip-rule="evenodd" d="M15.8994 16.3732C16.7055 16.0725 17.5668 15.9487 18.425 16.0102C19.2832 16.0716 20.1181 16.317 20.8731 16.7295C21.6281 17.142 22.2856 17.712 22.801 18.401C23.1318 18.8432 23.0414 19.4699 22.5992 19.8007C22.1569 20.1315 21.5302 20.0412 21.1994 19.5989C20.8559 19.1396 20.4175 18.7596 19.9142 18.4846C19.4108 18.2096 18.8542 18.0461 18.2821 18.0051C17.71 17.9641 17.1358 18.0466 16.5984 18.2471C16.061 18.4476 15.5729 18.7613 15.1674 19.1669L12.1738 22.1606C11.4488 22.9144 11.0477 23.9222 11.0568 24.9683C11.0659 26.0171 11.4866 27.0203 12.2282 27.762C12.9698 28.5036 13.9731 28.9243 15.0219 28.9334C16.0679 28.9425 17.0758 28.5414 17.8296 27.8164L19.5331 26.1129C19.9236 25.7223 20.5568 25.7223 20.9473 26.1129C21.3378 26.5034 21.3378 27.1365 20.9473 27.5271L19.2373 29.2371L19.2249 29.2493C18.0933 30.3422 16.5777 30.947 15.0045 30.9333C13.4313 30.9196 11.9264 30.2886 10.814 29.1762C9.70155 28.0637 9.07054 26.5588 9.05687 24.9857C9.0432 23.4125 9.64796 21.8969 10.7409 20.7653L10.7531 20.7529L13.753 17.753C13.7529 17.753 13.753 17.7529 13.753 17.753C14.3612 17.1446 15.0933 16.6739 15.8994 16.3732Z" fill="#292D32"/>
</svg>
