<svg width="92" height="70" viewBox="0 0 92 70" fill="none" xmlns="http://www.w3.org/2000/svg">
<path d="M55.082 27.1835L58.7084 25.1202C59.673 24.5713 60.2688 23.5469 60.2688 22.437V17.7316L45.4286 9.54174V7.29417C45.4286 6.19749 46.6051 5.12613 47.5653 5.65601L60.2688 12.6667V9.56301C60.2688 8.45312 59.673 7.42866 58.7084 6.87979L47.3265 0.403908C46.38 -0.134637 45.2197 -0.134636 44.2732 0.403909L39.6484 3.03523V10.3986L55.082 19.1797V27.1835Z" fill="#735FFA"/>
<path d="M36.5195 4.81653L32.8932 6.87979C31.9285 7.42866 31.3327 8.45313 31.3327 9.56302L31.3327 14.2684L46.173 22.4583L46.173 24.7058C46.173 25.8025 44.9964 26.8739 44.0362 26.344L31.3327 19.3333L31.3327 22.437C31.3327 23.5469 31.9285 24.5713 32.8932 25.1202L44.2751 31.5961C45.2216 32.1346 46.3818 32.1346 47.3284 31.5961L51.9531 28.9648L51.9531 21.6014L36.5195 12.8203L36.5195 4.81653Z" fill="#BE87FF"/>
<path d="M5.4375 65.6875C3.8125 65.6875 2.5 65.2656 1.5 64.4219C0.507812 63.5703 0.0078125 62.4492 0 61.0586H3.41016C3.41797 61.6133 3.61719 62.0391 4.00781 62.3359C4.40625 62.6328 4.92969 62.7812 5.57812 62.7812C6.09375 62.7812 6.52734 62.668 6.87891 62.4414C7.23828 62.2148 7.41797 61.8945 7.41797 61.4805C7.41797 61.2695 7.35547 61.0859 7.23047 60.9297C7.11328 60.7734 6.92578 60.6445 6.66797 60.543C6.41016 60.4336 6.15625 60.3516 5.90625 60.2969C5.65625 60.2344 5.32812 60.168 4.92188 60.0977C4.55469 60.0352 4.24609 59.9805 3.99609 59.9336C3.74609 59.8789 3.44141 59.8008 3.08203 59.6992C2.73047 59.5977 2.43359 59.4883 2.19141 59.3711C1.94922 59.2461 1.69141 59.082 1.41797 58.8789C1.15234 58.6758 0.9375 58.4531 0.773438 58.2109C0.617188 57.9609 0.484375 57.6602 0.375 57.3086C0.273438 56.957 0.222656 56.5703 0.222656 56.1484C0.222656 54.9219 0.703125 53.9258 1.66406 53.1602C2.625 52.3867 3.88281 52 5.4375 52C7 52 8.25391 52.3984 9.19922 53.1953C10.1445 53.9844 10.6211 55.0273 10.6289 56.3242H7.30078C7.29297 55.8164 7.11719 55.4336 6.77344 55.1758C6.4375 54.918 5.96094 54.7891 5.34375 54.7891C4.80469 54.7891 4.37891 54.9023 4.06641 55.1289C3.76172 55.3555 3.60938 55.6562 3.60938 56.0312C3.60938 56.1719 3.63281 56.3008 3.67969 56.418C3.73438 56.5273 3.82422 56.625 3.94922 56.7109C4.08203 56.7891 4.20312 56.8594 4.3125 56.9219C4.42969 56.9766 4.60156 57.0352 4.82812 57.0977C5.0625 57.1523 5.25 57.1953 5.39062 57.2266C5.53906 57.25 5.76172 57.2891 6.05859 57.3438C7.31641 57.5703 8.22266 57.8047 8.77734 58.0469C10.1758 58.6719 10.875 59.7656 10.875 61.3281C10.875 62.6484 10.3789 63.707 9.38672 64.5039C8.39453 65.293 7.07812 65.6875 5.4375 65.6875Z" fill="#F1F5F9"/>
<path d="M20.4009 52.3633H24.1275L18.4791 65.1484C17.94 66.3672 17.4127 67.3125 16.897 67.9844C16.3892 68.6641 15.7955 69.168 15.1158 69.4961C14.4361 69.832 13.6119 70 12.6431 70H11.2017V66.8477H12.4205C13.2486 66.8477 13.8384 66.6953 14.19 66.3906C14.5494 66.0859 14.9322 65.4336 15.3384 64.4336L15.3853 64.3281L9.90094 52.3633H13.7095L17.1666 60.332L20.4009 52.3633Z" fill="#F1F5F9"/>
<path d="M31.6964 52.0586C33.1652 52.0586 34.3331 52.5508 35.2003 53.5352C36.0675 54.5117 36.5011 55.8242 36.5011 57.4727V65.3242H32.9972V58.0352C32.9972 56.0977 32.2433 55.1289 30.7355 55.1289C29.837 55.1289 29.1261 55.4336 28.6027 56.043C28.087 56.6445 27.8292 57.4688 27.8292 58.5156V65.3242H24.3253V52.3633H26.7277L27.4073 53.9688C27.9073 53.375 28.5284 52.9102 29.2706 52.5742C30.0206 52.2305 30.8292 52.0586 31.6964 52.0586Z" fill="#F1F5F9"/>
<path d="M48.7106 52.3398H51.3356V65.3008H48.5817L48.277 64.1406C47.0973 65.1719 45.6989 65.6875 44.0817 65.6875C42.8005 65.6875 41.6403 65.3906 40.6012 64.7969C39.5622 64.2031 38.7497 63.3828 38.1637 62.3359C37.5778 61.2812 37.2848 60.1094 37.2848 58.8203C37.2848 57.5391 37.5778 56.3789 38.1637 55.3398C38.7497 54.293 39.5622 53.4766 40.6012 52.8906C41.6403 52.2969 42.8005 52 44.0817 52C45.7302 52 47.1481 52.5273 48.3356 53.582L48.7106 52.3398ZM41.8317 61.3633C42.5036 62.0352 43.3473 62.3711 44.363 62.3711C45.3786 62.3711 46.2184 62.0352 46.8825 61.3633C47.5544 60.6914 47.8903 59.8438 47.8903 58.8203C47.8903 57.7969 47.5544 56.9492 46.8825 56.2773C46.2184 55.6055 45.3786 55.2695 44.363 55.2695C43.3473 55.2695 42.5036 55.6094 41.8317 56.2891C41.1677 56.9609 40.8356 57.8047 40.8356 58.8203C40.8356 59.8359 41.1677 60.6836 41.8317 61.3633Z" fill="#F1F5F9"/>
<path d="M60.217 52C61.4983 52 62.6545 52.2969 63.6858 52.8906C64.7248 53.4766 65.5373 54.293 66.1233 55.3398C66.7092 56.3867 67.0022 57.5547 67.0022 58.8438C67.0022 60.1328 66.7092 61.3047 66.1233 62.3594C65.5373 63.4062 64.7248 64.2266 63.6858 64.8203C62.6545 65.4141 61.4983 65.7109 60.217 65.7109C58.9045 65.7109 57.717 65.3477 56.6545 64.6211V70H53.1506V52.3633H55.4592L56.0569 53.5469C57.2209 52.5156 58.6077 52 60.217 52ZM57.3928 61.3867C58.0647 62.0586 58.9084 62.3945 59.9241 62.3945C60.9397 62.3945 61.7795 62.0586 62.4436 61.3867C63.1155 60.7148 63.4514 59.8672 63.4514 58.8438C63.4514 57.8203 63.1155 56.9727 62.4436 56.3008C61.7795 55.6289 60.9397 55.293 59.9241 55.293C58.9084 55.293 58.0647 55.6328 57.3928 56.3125C56.7288 56.9844 56.3967 57.8281 56.3967 58.8438C56.3967 59.8594 56.7288 60.707 57.3928 61.3867Z" fill="#F1F5F9"/>
<path d="M72.5437 65.6875C70.9187 65.6875 69.6062 65.2656 68.6062 64.4219C67.6141 63.5703 67.1141 62.4492 67.1062 61.0586H70.5164C70.5242 61.6133 70.7234 62.0391 71.1141 62.3359C71.5125 62.6328 72.0359 62.7812 72.6844 62.7812C73.2 62.7812 73.6336 62.668 73.9852 62.4414C74.3445 62.2148 74.5242 61.8945 74.5242 61.4805C74.5242 61.2695 74.4617 61.0859 74.3367 60.9297C74.2195 60.7734 74.032 60.6445 73.7742 60.543C73.5164 60.4336 73.2625 60.3516 73.0125 60.2969C72.7625 60.2344 72.4344 60.168 72.0281 60.0977C71.6609 60.0352 71.3523 59.9805 71.1023 59.9336C70.8523 59.8789 70.5477 59.8008 70.1883 59.6992C69.8367 59.5977 69.5398 59.4883 69.2977 59.3711C69.0555 59.2461 68.7977 59.082 68.5242 58.8789C68.2586 58.6758 68.0437 58.4531 67.8797 58.2109C67.7234 57.9609 67.5906 57.6602 67.4812 57.3086C67.3797 56.957 67.3289 56.5703 67.3289 56.1484C67.3289 54.9219 67.8094 53.9258 68.7703 53.1602C69.7312 52.3867 70.9891 52 72.5437 52C74.1062 52 75.3602 52.3984 76.3055 53.1953C77.2508 53.9844 77.7273 55.0273 77.7352 56.3242H74.407C74.3992 55.8164 74.2234 55.4336 73.8797 55.1758C73.5437 54.918 73.0672 54.7891 72.45 54.7891C71.9109 54.7891 71.4852 54.9023 71.1727 55.1289C70.868 55.3555 70.7156 55.6562 70.7156 56.0312C70.7156 56.1719 70.7391 56.3008 70.7859 56.418C70.8406 56.5273 70.9305 56.625 71.0555 56.7109C71.1883 56.7891 71.3094 56.8594 71.4187 56.9219C71.5359 56.9766 71.7078 57.0352 71.9344 57.0977C72.1687 57.1523 72.3562 57.1953 72.4969 57.2266C72.6453 57.25 72.868 57.2891 73.1648 57.3438C74.4227 57.5703 75.3289 57.8047 75.8836 58.0469C77.282 58.6719 77.9812 59.7656 77.9812 61.3281C77.9812 62.6484 77.4852 63.707 76.493 64.5039C75.5008 65.293 74.1844 65.6875 72.5437 65.6875Z" fill="#F1F5F9"/>
<path d="M91.5736 58.7969C91.5736 59.1484 91.5502 59.4922 91.5033 59.8281H81.6947C81.8431 60.7109 82.1947 61.3906 82.7494 61.8672C83.3119 62.3359 84.0189 62.5703 84.8705 62.5703C85.472 62.5703 86.0111 62.4375 86.4877 62.1719C86.972 61.9062 87.347 61.5391 87.6127 61.0703H91.2923C90.8236 62.4844 90.0111 63.6094 88.8548 64.4453C87.6986 65.2734 86.3705 65.6875 84.8705 65.6875C83.6127 65.6875 82.4681 65.3906 81.4369 64.7969C80.4134 64.1953 79.6087 63.3711 79.0228 62.3242C78.4369 61.2773 78.1439 60.1172 78.1439 58.8438C78.1439 57.5625 78.433 56.3984 79.0111 55.3516C79.597 54.3047 80.4017 53.4844 81.4252 52.8906C82.4564 52.2969 83.6048 52 84.8705 52C86.1673 52 87.3314 52.3086 88.3627 52.9258C89.3939 53.5352 90.1869 54.3555 90.7416 55.3867C91.2962 56.418 91.5736 57.5547 91.5736 58.7969ZM84.8705 54.9883C84.097 54.9883 83.4408 55.2031 82.9017 55.6328C82.3627 56.0625 81.9916 56.6641 81.7884 57.4375H88.0697C87.8275 56.6484 87.4291 56.043 86.8744 55.6211C86.3275 55.1992 85.6595 54.9883 84.8705 54.9883Z" fill="#F1F5F9"/>
</svg>
