<svg width="36" height="36" viewBox="0 0 36 36" fill="none" xmlns="http://www.w3.org/2000/svg">
<rect width="36" height="36" rx="18" fill="#FF6C3E"/>
<path fill-rule="evenodd" clip-rule="evenodd" d="M14.2937 12.5594C16.4134 14.5991 19.7662 14.5991 21.8859 12.5594L25.841 8.75359C26.1251 8.4802 25.9316 8 25.5373 8L10.6422 8C10.248 8 10.0544 8.4802 10.3385 8.75359L14.2937 12.5594ZM21.5356 22.6026C19.4158 20.5629 16.0631 20.5629 13.9433 22.6026L9.98821 26.4084C9.7041 26.6818 9.89761 27.162 10.2919 27.162L25.187 27.162C25.5813 27.162 25.7748 26.6818 25.4907 26.4084L21.5356 22.6026ZM13.3355 21.2337C13.3355 21.2337 14.3849 20.6051 14.5593 18.6725C14.7337 16.7398 13.7333 14.6466 12.2668 13.2055L9.28532 10.2757C9.13846 10.1314 8.89357 10.1723 8.80149 10.3564C7.04696 13.8655 8.25915 18.1334 11.5962 20.1963L13.106 21.1297C13.1805 21.1757 13.2576 21.2101 13.3355 21.2337ZM21.4407 16.822C21.6151 14.8893 22.6645 14.2608 22.6645 14.2608C22.7424 14.2843 22.8195 14.3187 22.894 14.3647L24.4038 15.2981C27.7409 17.361 28.953 21.629 27.1985 25.138C27.1064 25.3222 26.8615 25.363 26.7147 25.2187L23.7332 22.2889C22.2667 20.8478 21.2663 18.7546 21.4407 16.822Z" fill="#FCFDFE"/>
</svg>
