<svg width="20" height="20" viewBox="0 0 20 20" fill="none" xmlns="http://www.w3.org/2000/svg">
<path fill-rule="evenodd" clip-rule="evenodd" d="M6.29369 4.55941C8.41343 6.59913 11.7662 6.59913 13.8859 4.55941L17.841 0.753587C18.1251 0.480205 17.9316 1.33664e-06 17.5373 1.30217e-06L2.64224 0C2.24796 -3.44698e-08 2.05444 0.480203 2.33855 0.753585L6.29369 4.55941ZM13.5356 14.6026C11.4158 12.5629 8.06309 12.5629 5.94335 14.6026L1.98821 18.4084C1.7041 18.6818 1.89761 19.162 2.29189 19.162L17.187 19.162C17.5813 19.162 17.7748 18.6818 17.4907 18.4084L13.5356 14.6026ZM5.33551 13.2337C5.33551 13.2337 6.38491 12.6051 6.5593 10.6725C6.7337 8.73981 5.73327 6.64659 4.26678 5.20551L1.28532 2.27573C1.13846 2.13142 0.893566 2.17226 0.801489 2.35641C-0.953037 5.86546 0.25915 10.1334 3.59623 12.1963L5.10604 13.1297C5.18053 13.1757 5.25757 13.2101 5.33551 13.2337ZM13.4407 8.82197C13.6151 6.88933 14.6645 6.26078 14.6645 6.26078C14.7424 6.28434 14.8195 6.31869 14.894 6.36474L16.4038 7.29808C19.7409 9.36102 20.953 13.629 19.1985 17.138C19.1064 17.3222 18.8615 17.363 18.7147 17.2187L15.7332 14.2889C14.2667 12.8478 13.2663 10.7546 13.4407 8.82197Z" fill="#181B1F"/>
</svg>
