<svg width="64" height="64" viewBox="0 0 64 64" fill="none" xmlns="http://www.w3.org/2000/svg">
<rect width="64" height="64" rx="32" fill="#181B1F"/>
<path fill-rule="evenodd" clip-rule="evenodd" d="M28.2937 26.5594C30.4134 28.5991 33.7662 28.5991 35.8859 26.5594L39.841 22.7536C40.1251 22.4802 39.9316 22 39.5373 22L24.6422 22C24.248 22 24.0544 22.4802 24.3385 22.7536L28.2937 26.5594ZM35.5356 36.6026C33.4158 34.5629 30.0631 34.5629 27.9433 36.6026L23.9882 40.4084C23.7041 40.6818 23.8976 41.162 24.2919 41.162L39.187 41.162C39.5813 41.162 39.7748 40.6818 39.4907 40.4084L35.5356 36.6026ZM27.3355 35.2337C27.3355 35.2337 28.3849 34.6051 28.5593 32.6725C28.7337 30.7398 27.7333 28.6466 26.2668 27.2055L23.2853 24.2757C23.1385 24.1314 22.8936 24.1723 22.8015 24.3564C21.047 27.8655 22.2592 32.1334 25.5962 34.1963L27.106 35.1297C27.1805 35.1757 27.2576 35.2101 27.3355 35.2337ZM35.4407 30.822C35.6151 28.8893 36.6645 28.2608 36.6645 28.2608C36.7424 28.2843 36.8195 28.3187 36.894 28.3647L38.4038 29.2981C41.7409 31.361 42.953 35.629 41.1985 39.138C41.1064 39.3222 40.8615 39.363 40.7147 39.2187L37.7332 36.2889C36.2667 34.8478 35.2663 32.7546 35.4407 30.822Z" fill="#FCFDFE"/>
</svg>
