<svg width="152" height="48" viewBox="0 0 152 48" fill="none" xmlns="http://www.w3.org/2000/svg">
<path d="M33.0845 35.1835L36.7108 33.1202C37.6755 32.5713 38.2713 31.5469 38.2713 30.437V25.7316L23.431 17.5417V15.2942C23.431 14.1975 24.6076 13.1261 25.5678 13.656L38.2713 20.6667V17.563C38.2713 16.4531 37.6755 15.4287 36.7108 14.8798L25.3289 8.40391C24.3824 7.86536 23.2222 7.86536 22.2756 8.40391L17.6509 11.0352V18.3986L33.0845 27.1797V35.1835Z" fill="#BE87FF"/>
<path d="M14.52 12.8165L10.8937 14.8798C9.92901 15.4287 9.33322 16.4531 9.33322 17.563L9.33322 22.2684L24.1735 30.4583L24.1735 32.7058C24.1735 33.8025 22.9969 34.8739 22.0367 34.344L9.33322 27.3333L9.33322 30.437C9.33322 31.5469 9.92901 32.5713 10.8937 33.1202L22.2755 39.5961C23.2221 40.1346 24.3823 40.1346 25.3289 39.5961L29.9536 36.9648L29.9536 29.6014L14.52 20.8203L14.52 12.8165Z" fill="#BE87FF"/>
<path d="M57.4375 30.6875C55.8125 30.6875 54.5 30.2656 53.5 29.4219C52.5078 28.5703 52.0078 27.4492 52 26.0586H55.4102C55.418 26.6133 55.6172 27.0391 56.0078 27.3359C56.4062 27.6328 56.9297 27.7812 57.5781 27.7812C58.0938 27.7812 58.5273 27.668 58.8789 27.4414C59.2383 27.2148 59.418 26.8945 59.418 26.4805C59.418 26.2695 59.3555 26.0859 59.2305 25.9297C59.1133 25.7734 58.9258 25.6445 58.668 25.543C58.4102 25.4336 58.1562 25.3516 57.9062 25.2969C57.6562 25.2344 57.3281 25.168 56.9219 25.0977C56.5547 25.0352 56.2461 24.9805 55.9961 24.9336C55.7461 24.8789 55.4414 24.8008 55.082 24.6992C54.7305 24.5977 54.4336 24.4883 54.1914 24.3711C53.9492 24.2461 53.6914 24.082 53.418 23.8789C53.1523 23.6758 52.9375 23.4531 52.7734 23.2109C52.6172 22.9609 52.4844 22.6602 52.375 22.3086C52.2734 21.957 52.2227 21.5703 52.2227 21.1484C52.2227 19.9219 52.7031 18.9258 53.6641 18.1602C54.625 17.3867 55.8828 17 57.4375 17C59 17 60.2539 17.3984 61.1992 18.1953C62.1445 18.9844 62.6211 20.0273 62.6289 21.3242H59.3008C59.293 20.8164 59.1172 20.4336 58.7734 20.1758C58.4375 19.918 57.9609 19.7891 57.3438 19.7891C56.8047 19.7891 56.3789 19.9023 56.0664 20.1289C55.7617 20.3555 55.6094 20.6562 55.6094 21.0312C55.6094 21.1719 55.6328 21.3008 55.6797 21.418C55.7344 21.5273 55.8242 21.625 55.9492 21.7109C56.082 21.7891 56.2031 21.8594 56.3125 21.9219C56.4297 21.9766 56.6016 22.0352 56.8281 22.0977C57.0625 22.1523 57.25 22.1953 57.3906 22.2266C57.5391 22.25 57.7617 22.2891 58.0586 22.3438C59.3164 22.5703 60.2227 22.8047 60.7773 23.0469C62.1758 23.6719 62.875 24.7656 62.875 26.3281C62.875 27.6484 62.3789 28.707 61.3867 29.5039C60.3945 30.293 59.0781 30.6875 57.4375 30.6875Z" fill="#F1F5F9"/>
<path d="M72.4009 17.3633H76.1275L70.4791 30.1484C69.94 31.3672 69.4127 32.3125 68.897 32.9844C68.3892 33.6641 67.7955 34.168 67.1158 34.4961C66.4361 34.832 65.6119 35 64.6431 35H63.2017V31.8477H64.4205C65.2486 31.8477 65.8384 31.6953 66.19 31.3906C66.5494 31.0859 66.9322 30.4336 67.3384 29.4336L67.3853 29.3281L61.9009 17.3633H65.7095L69.1666 25.332L72.4009 17.3633Z" fill="#F1F5F9"/>
<path d="M83.6964 17.0586C85.1652 17.0586 86.3331 17.5508 87.2003 18.5352C88.0675 19.5117 88.5011 20.8242 88.5011 22.4727V30.3242H84.9972V23.0352C84.9972 21.0977 84.2433 20.1289 82.7355 20.1289C81.837 20.1289 81.1261 20.4336 80.6027 21.043C80.087 21.6445 79.8292 22.4688 79.8292 23.5156V30.3242H76.3253V17.3633H78.7277L79.4073 18.9688C79.9073 18.375 80.5284 17.9102 81.2706 17.5742C82.0206 17.2305 82.8292 17.0586 83.6964 17.0586Z" fill="#F1F5F9"/>
<path d="M100.711 17.3398H103.336V30.3008H100.582L100.277 29.1406C99.0973 30.1719 97.6989 30.6875 96.0817 30.6875C94.8005 30.6875 93.6403 30.3906 92.6012 29.7969C91.5622 29.2031 90.7497 28.3828 90.1637 27.3359C89.5778 26.2812 89.2848 25.1094 89.2848 23.8203C89.2848 22.5391 89.5778 21.3789 90.1637 20.3398C90.7497 19.293 91.5622 18.4766 92.6012 17.8906C93.6403 17.2969 94.8005 17 96.0817 17C97.7302 17 99.1481 17.5273 100.336 18.582L100.711 17.3398ZM93.8317 26.3633C94.5036 27.0352 95.3473 27.3711 96.363 27.3711C97.3786 27.3711 98.2184 27.0352 98.8825 26.3633C99.5544 25.6914 99.8903 24.8438 99.8903 23.8203C99.8903 22.7969 99.5544 21.9492 98.8825 21.2773C98.2184 20.6055 97.3786 20.2695 96.363 20.2695C95.3473 20.2695 94.5036 20.6094 93.8317 21.2891C93.1677 21.9609 92.8356 22.8047 92.8356 23.8203C92.8356 24.8359 93.1677 25.6836 93.8317 26.3633Z" fill="#F1F5F9"/>
<path d="M112.217 17C113.498 17 114.655 17.2969 115.686 17.8906C116.725 18.4766 117.537 19.293 118.123 20.3398C118.709 21.3867 119.002 22.5547 119.002 23.8438C119.002 25.1328 118.709 26.3047 118.123 27.3594C117.537 28.4062 116.725 29.2266 115.686 29.8203C114.655 30.4141 113.498 30.7109 112.217 30.7109C110.905 30.7109 109.717 30.3477 108.655 29.6211V35H105.151V17.3633H107.459L108.057 18.5469C109.221 17.5156 110.608 17 112.217 17ZM109.393 26.3867C110.065 27.0586 110.908 27.3945 111.924 27.3945C112.94 27.3945 113.78 27.0586 114.444 26.3867C115.115 25.7148 115.451 24.8672 115.451 23.8438C115.451 22.8203 115.115 21.9727 114.444 21.3008C113.78 20.6289 112.94 20.293 111.924 20.293C110.908 20.293 110.065 20.6328 109.393 21.3125C108.729 21.9844 108.397 22.8281 108.397 23.8438C108.397 24.8594 108.729 25.707 109.393 26.3867Z" fill="#F1F5F9"/>
<path d="M124.544 30.6875C122.919 30.6875 121.606 30.2656 120.606 29.4219C119.614 28.5703 119.114 27.4492 119.106 26.0586H122.516C122.524 26.6133 122.723 27.0391 123.114 27.3359C123.512 27.6328 124.036 27.7812 124.684 27.7812C125.2 27.7812 125.634 27.668 125.985 27.4414C126.345 27.2148 126.524 26.8945 126.524 26.4805C126.524 26.2695 126.462 26.0859 126.337 25.9297C126.22 25.7734 126.032 25.6445 125.774 25.543C125.516 25.4336 125.262 25.3516 125.012 25.2969C124.762 25.2344 124.434 25.168 124.028 25.0977C123.661 25.0352 123.352 24.9805 123.102 24.9336C122.852 24.8789 122.548 24.8008 122.188 24.6992C121.837 24.5977 121.54 24.4883 121.298 24.3711C121.055 24.2461 120.798 24.082 120.524 23.8789C120.259 23.6758 120.044 23.4531 119.88 23.2109C119.723 22.9609 119.591 22.6602 119.481 22.3086C119.38 21.957 119.329 21.5703 119.329 21.1484C119.329 19.9219 119.809 18.9258 120.77 18.1602C121.731 17.3867 122.989 17 124.544 17C126.106 17 127.36 17.3984 128.305 18.1953C129.251 18.9844 129.727 20.0273 129.735 21.3242H126.407C126.399 20.8164 126.223 20.4336 125.88 20.1758C125.544 19.918 125.067 19.7891 124.45 19.7891C123.911 19.7891 123.485 19.9023 123.173 20.1289C122.868 20.3555 122.716 20.6562 122.716 21.0312C122.716 21.1719 122.739 21.3008 122.786 21.418C122.841 21.5273 122.93 21.625 123.055 21.7109C123.188 21.7891 123.309 21.8594 123.419 21.9219C123.536 21.9766 123.708 22.0352 123.934 22.0977C124.169 22.1523 124.356 22.1953 124.497 22.2266C124.645 22.25 124.868 22.2891 125.165 22.3438C126.423 22.5703 127.329 22.8047 127.884 23.0469C129.282 23.6719 129.981 24.7656 129.981 26.3281C129.981 27.6484 129.485 28.707 128.493 29.5039C127.501 30.293 126.184 30.6875 124.544 30.6875Z" fill="#F1F5F9"/>
<path d="M143.574 23.7969C143.574 24.1484 143.55 24.4922 143.503 24.8281H133.695C133.843 25.7109 134.195 26.3906 134.749 26.8672C135.312 27.3359 136.019 27.5703 136.87 27.5703C137.472 27.5703 138.011 27.4375 138.488 27.1719C138.972 26.9062 139.347 26.5391 139.613 26.0703H143.292C142.824 27.4844 142.011 28.6094 140.855 29.4453C139.699 30.2734 138.37 30.6875 136.87 30.6875C135.613 30.6875 134.468 30.3906 133.437 29.7969C132.413 29.1953 131.609 28.3711 131.023 27.3242C130.437 26.2773 130.144 25.1172 130.144 23.8438C130.144 22.5625 130.433 21.3984 131.011 20.3516C131.597 19.3047 132.402 18.4844 133.425 17.8906C134.456 17.2969 135.605 17 136.87 17C138.167 17 139.331 17.3086 140.363 17.9258C141.394 18.5352 142.187 19.3555 142.742 20.3867C143.296 21.418 143.574 22.5547 143.574 23.7969ZM136.87 19.9883C136.097 19.9883 135.441 20.2031 134.902 20.6328C134.363 21.0625 133.992 21.6641 133.788 22.4375H140.07C139.827 21.6484 139.429 21.043 138.874 20.6211C138.327 20.1992 137.66 19.9883 136.87 19.9883Z" fill="#F1F5F9"/>
</svg>
