<svg width="20" height="20" viewBox="0 0 20 20" fill="none" xmlns="http://www.w3.org/2000/svg">
<path d="M10.9249 0.802622C10.9249 0.371887 10.5965 0.00837806 10.1658 0.00135519C10.1104 0.000452894 10.055 0 9.99945 0C9.67682 0 9.42487 0.268489 9.42487 0.59112V3.65402L7.26668 2.69482C7.10029 2.62087 6.9627 2.49446 6.87495 2.33491L6.39354 1.45962C6.19247 1.09403 5.74299 0.938789 5.37322 1.13207C4.99243 1.33112 4.87226 1.80622 5.07933 2.18271L5.80409 3.50045C5.89184 3.66 6.02943 3.78641 6.19582 3.86036L9.42487 5.2955V9.12885C9.39391 9.14155 9.36343 9.15648 9.33365 9.17367L8.2269 9.81265C7.98776 9.95072 7.68196 9.86879 7.54389 9.62964L6.06699 7.07156C5.98616 6.93156 5.86636 6.8181 5.72217 6.74499L2.2137 4.96595C1.84233 4.77765 1.38624 4.89876 1.1888 5.26536C0.984649 5.64442 1.15134 6.10909 1.53533 6.3038L3.83103 7.46787L2.93825 7.98331C2.83523 8.04279 2.72067 8.07953 2.60227 8.09104L0.755973 8.27065C0.391146 8.30614 0.092778 8.57636 0.0543855 8.94089C0.00372572 9.4219 0.421303 9.81029 0.902701 9.76346L3.07088 9.55254C3.18928 9.54103 3.30385 9.50429 3.40687 9.44481L5.13056 8.44963L6.24485 10.3796C6.38292 10.6188 6.30099 10.9246 6.06184 11.0627L1.49117 13.7015C1.13232 13.9087 0.985484 14.3569 1.1814 14.722C1.38592 15.1032 1.86681 15.2167 2.24143 15.0004L4.90142 13.4647L5.15 15.815C5.16915 15.9961 5.12847 16.1784 5.03417 16.3342L4.39675 17.3872C4.18112 17.7434 4.26818 18.2075 4.61897 18.4319C4.98163 18.6638 5.45702 18.5322 5.67995 18.164L6.57899 16.6788C6.67329 16.5231 6.71397 16.3407 6.69482 16.1596L6.32297 12.6439L10.0836 10.4727C10.0914 10.4683 10.099 10.4637 10.1065 10.459C10.1447 10.4933 10.187 10.5242 10.2332 10.5509L11.3409 11.1904C11.58 11.3284 11.662 11.6342 11.5239 11.8734L10.047 14.4315C9.96601 14.5717 9.92766 14.7325 9.93661 14.8942L10.176 19.2214C10.1995 19.6456 10.5711 19.965 10.994 19.9244C11.393 19.886 11.6907 19.5399 11.669 19.1396L11.508 16.1701L12.4007 16.6856C12.5038 16.7451 12.5928 16.8259 12.662 16.9227L13.8118 18.5313C14.0383 18.8482 14.4616 18.9614 14.8031 18.774C15.2051 18.5535 15.2983 18.0314 15.0317 17.6584L13.6934 15.7861C13.6242 15.6893 13.5351 15.6085 13.4321 15.549L11.7084 14.5538L12.8229 12.6234C12.961 12.3842 13.2668 12.3023 13.506 12.4404L17.8002 14.9197C18.1774 15.1374 18.6616 15.0207 18.8636 14.635C19.0546 14.2705 18.9069 13.8266 18.5505 13.6208L16.1674 12.2449L18.0783 10.8545C18.2256 10.7474 18.4039 10.6915 18.5859 10.6952L19.2503 10.709C19.6559 10.7175 20 10.4063 20 10.0006C20 9.99329 20 9.98602 20 9.97875C19.9991 9.54991 19.6433 9.21687 19.2146 9.20797L18.1119 9.18508C17.9299 9.1813 17.7516 9.23725 17.6044 9.34438L14.7458 11.4241L10.9832 9.25182C10.964 9.24074 10.9446 9.23061 10.9249 9.2214V8.36196C10.9249 8.08582 11.1487 7.86196 11.4249 7.86196L14.3804 7.86196C14.5421 7.86196 14.7003 7.81494 14.8357 7.72663L18.1273 5.57983C18.4825 5.34818 18.601 4.87849 18.3684 4.52388C18.1366 4.17035 17.6619 4.09254 17.3078 4.32347L15.1552 5.7274V4.69651C15.1552 4.57755 15.1807 4.45997 15.2299 4.35167L15.9594 2.74673C16.1133 2.40812 16.0199 2.00588 15.7148 1.79306C15.323 1.51971 14.7912 1.69191 14.5935 2.12683L13.7299 4.02676C13.6807 4.13506 13.6552 4.25264 13.6552 4.37159V6.36196H11.4249C11.1487 6.36196 10.9249 6.1381 10.9249 5.86196V0.802622Z" fill="#181B1F"/>
</svg>
