<svg width="33" height="32" viewBox="0 0 33 32" fill="none" xmlns="http://www.w3.org/2000/svg">
<path d="M25.5859 27.1835L29.2123 25.1202C30.1769 24.5713 30.7727 23.5469 30.7727 22.437V17.7316L15.9325 9.54174V7.29417C15.9325 6.19749 17.1091 5.12613 18.0692 5.65601L30.7727 12.6667V9.56301C30.7727 8.45312 30.1769 7.42866 29.2123 6.87979L17.8304 0.403908C16.8839 -0.134637 15.7236 -0.134636 14.7771 0.403909L10.1523 3.03523V10.3986L25.5859 19.1797V27.1835Z" fill="#735FFA"/>
<path d="M7.01954 4.81653L3.3932 6.87979C2.42852 7.42866 1.83273 8.45313 1.83273 9.56302L1.83273 14.2684L16.673 22.4583L16.673 24.7058C16.673 25.8025 15.4964 26.8739 14.5362 26.344L1.83273 19.3333L1.83273 22.437C1.83273 23.5469 2.42852 24.5713 3.3932 25.1202L14.7751 31.5961C15.7216 32.1346 16.8818 32.1346 17.8284 31.5961L22.4531 28.9648L22.4531 21.6014L7.01954 12.8203L7.01954 4.81653Z" fill="#BE87FF"/>
</svg>
