<svg width="20" height="20" viewBox="0 0 20 20" fill="none" xmlns="http://www.w3.org/2000/svg">
<path fill-rule="evenodd" clip-rule="evenodd" d="M6.29369 4.55936C8.41343 6.59907 11.7662 6.59907 13.8859 4.55936L17.841 0.753531C18.1251 0.480149 17.9316 -5.46126e-05 17.5373 -5.46471e-05L2.64224 -5.59492e-05C2.24796 -5.59837e-05 2.05444 0.480147 2.33855 0.753529L6.29369 4.55936ZM13.5356 14.6025C11.4158 12.5628 8.06309 12.5628 5.94335 14.6025L1.98821 18.4083C1.7041 18.6817 1.89761 19.1619 2.29189 19.1619L17.187 19.1619C17.5813 19.1619 17.7748 18.6817 17.4907 18.4083L13.5356 14.6025ZM5.33551 13.2336C5.33551 13.2336 6.38491 12.605 6.5593 10.6724C6.7337 8.73975 5.73327 6.64653 4.26678 5.20546L1.28532 2.27567C1.13846 2.13136 0.893566 2.1722 0.801489 2.35636C-0.953037 5.8654 0.25915 10.1334 3.59623 12.1963L5.10604 13.1296C5.18053 13.1757 5.25757 13.21 5.33551 13.2336ZM13.4407 8.82192C13.6151 6.88927 14.6645 6.26072 14.6645 6.26072C14.7424 6.28428 14.8195 6.31863 14.894 6.36469L16.4038 7.29803C19.7409 9.36096 20.953 13.6289 19.1985 17.138C19.1064 17.3221 18.8615 17.3629 18.7147 17.2186L15.7332 14.2889C14.2667 12.8478 13.2663 10.7546 13.4407 8.82192Z" fill="#FCFDFE"/>
</svg>
