<svg width="48" height="48" viewBox="0 0 48 48" fill="none" xmlns="http://www.w3.org/2000/svg">
<g clip-path="url(#clip0_854_258729)">
<path d="M9 22.5H39C39.3978 22.5 39.7794 22.342 40.0607 22.0607C40.342 21.7794 40.5 21.3978 40.5 21V16.5C40.5002 16.303 40.4615 16.1078 40.3862 15.9257C40.3109 15.7436 40.2005 15.5782 40.0613 15.4388L29.5613 4.93875C29.4218 4.7995 29.2564 4.68908 29.0743 4.6138C28.8922 4.53851 28.697 4.49985 28.5 4.5H10.5C9.70435 4.5 8.94129 4.81607 8.37868 5.37868C7.81607 5.94129 7.5 6.70435 7.5 7.5V21C7.5 21.3978 7.65804 21.7794 7.93934 22.0607C8.22064 22.342 8.60218 22.5 9 22.5ZM28.5 8.25L36.75 16.5H28.5V8.25ZM42 28.5C42 28.8978 41.842 29.2794 41.5607 29.5607C41.2794 29.842 40.8978 30 40.5 30H36V33H39C39.3978 33 39.7794 33.158 40.0607 33.4393C40.342 33.7206 40.5 34.1022 40.5 34.5C40.5 34.8978 40.342 35.2794 40.0607 35.5607C39.7794 35.842 39.3978 36 39 36H36V39C36 39.3978 35.842 39.7794 35.5607 40.0607C35.2794 40.342 34.8978 40.5 34.5 40.5C34.1022 40.5 33.7206 40.342 33.4393 40.0607C33.158 39.7794 33 39.3978 33 39V28.5C33 28.1022 33.158 27.7206 33.4393 27.4393C33.7206 27.158 34.1022 27 34.5 27H40.5C40.8978 27 41.2794 27.158 41.5607 27.4393C41.842 27.7206 42 28.1022 42 28.5ZM12 27H9C8.60218 27 8.22064 27.158 7.93934 27.4393C7.65804 27.7206 7.5 28.1022 7.5 28.5V39C7.5 39.3978 7.65804 39.7794 7.93934 40.0607C8.22064 40.342 8.60218 40.5 9 40.5C9.39782 40.5 9.77936 40.342 10.0607 40.0607C10.342 39.7794 10.5 39.3978 10.5 39V37.5H12C13.3924 37.5 14.7277 36.9469 15.7123 35.9623C16.6969 34.9777 17.25 33.6424 17.25 32.25C17.25 30.8576 16.6969 29.5223 15.7123 28.5377C14.7277 27.5531 13.3924 27 12 27ZM12 34.5H10.5V30H12C12.5967 30 13.169 30.2371 13.591 30.659C14.0129 31.081 14.25 31.6533 14.25 32.25C14.25 32.8467 14.0129 33.419 13.591 33.841C13.169 34.2629 12.5967 34.5 12 34.5ZM24 27H21C20.6022 27 20.2206 27.158 19.9393 27.4393C19.658 27.7206 19.5 28.1022 19.5 28.5V39C19.5 39.3978 19.658 39.7794 19.9393 40.0607C20.2206 40.342 20.6022 40.5 21 40.5H24C25.7902 40.5 27.5071 39.7888 28.773 38.523C30.0388 37.2571 30.75 35.5402 30.75 33.75C30.75 31.9598 30.0388 30.2429 28.773 28.977C27.5071 27.7112 25.7902 27 24 27ZM24 37.5H22.5V30H24C24.9946 30 25.9484 30.3951 26.6517 31.0983C27.3549 31.8016 27.75 32.7554 27.75 33.75C27.75 34.7446 27.3549 35.6984 26.6517 36.4017C25.9484 37.1049 24.9946 37.5 24 37.5Z" fill="#7C878E"/>
</g>
<defs>
<clipPath id="clip0_854_258729">
<rect width="48" height="48" fill="white"/>
</clipPath>
</defs>
</svg>
