<svg xmlns="http://www.w3.org/2000/svg" width="32" height="32" fill="#fcfdfe" xmlns:v="https://vecta.io/nano"><path d="M24 2.667c-2.945 0-5.333 2.388-5.333 5.333s2.388 5.333 5.333 5.333S29.333 10.946 29.333 8 26.945 2.667 24 2.667zm-.312 13.274a2.67 2.67 0 0 0-2.043 0c-.495.205-.833.562-1.077.864-.214.266-.444.605-.69.974l-3.725-5.38-.752-1.029c-.244-.292-.58-.634-1.064-.831-.644-.262-1.365-.262-2.008 0-.485.197-.82.538-1.064.831-.232.278-.483.64-.752 1.029L2.522 23.941l-.873 1.332c-.215.38-.463.904-.434 1.52.037.785.419 1.514 1.044 1.992.49.375 1.062.469 1.497.509s.982.04 1.592.04h19.987 1.405l1.565-.039c.43-.04.994-.133 1.481-.501.622-.47 1.007-1.189 1.053-1.968.036-.609-.199-1.13-.405-1.51s-.504-.827-.836-1.324l-4.075-6.113-.756-1.074c-.244-.302-.582-.659-1.077-.864z"/></svg>