<svg width="892" height="40" viewBox="0 0 892 40" fill="none" xmlns="http://www.w3.org/2000/svg">
<rect y="19.5" width="2" height="1" rx="0.5" fill="#BE87FF"/>
<rect x="4" y="19.5" width="2" height="1" rx="0.5" fill="#BE87FF"/>
<rect x="8" y="19.5" width="2" height="1" rx="0.5" fill="#BE87FF"/>
<rect x="12" y="19.5" width="2" height="1" rx="0.5" fill="#BE87FF"/>
<rect x="16" y="19.5" width="2" height="1" rx="0.5" fill="#BE87FF"/>
<rect x="20" y="19.5" width="2" height="1" rx="0.5" fill="#BE87FF"/>
<rect x="24" y="19.5" width="2" height="1" rx="0.5" fill="#BE87FF"/>
<rect x="28" y="19.5" width="2" height="1" rx="0.5" fill="#BE87FF"/>
<rect x="32" y="19.5" width="2" height="1" rx="0.5" fill="#BE87FF"/>
<rect x="36" y="19.5" width="2" height="1" rx="0.5" fill="#BE87FF"/>
<rect x="40" y="19.5" width="2" height="1" rx="0.5" fill="#BE87FF"/>
<rect x="44" y="19.5" width="2" height="1" rx="0.5" fill="#BE87FF"/>
<rect x="48" y="19.5" width="2" height="1" rx="0.5" fill="#BE87FF"/>
<rect x="52" y="19.5" width="2" height="1" rx="0.5" fill="#BE87FF"/>
<rect x="56" y="19.5" width="2" height="1" rx="0.5" fill="#BE87FF"/>
<rect x="60" y="19.5" width="2" height="1" rx="0.5" fill="#BE87FF"/>
<rect x="64" y="19.5" width="2" height="1" rx="0.5" fill="#BE87FF"/>
<rect x="68" y="18" width="2" height="4" rx="1" fill="#BE87FF"/>
<rect x="72" y="18" width="2" height="4" rx="1" fill="#BE87FF"/>
<rect x="76" y="18" width="2" height="4" rx="1" fill="#BE87FF"/>
<rect x="80" y="18" width="2" height="4" rx="1" fill="#BE87FF"/>
<rect x="84" y="18" width="2" height="4" rx="1" fill="#BE87FF"/>
<rect x="88" y="18" width="2" height="4" rx="1" fill="#BE87FF"/>
<rect x="92" y="18" width="2" height="4" rx="1" fill="#BE87FF"/>
<rect x="96" y="18" width="2" height="4" rx="1" fill="#BE87FF"/>
<rect x="100" y="18" width="2" height="4" rx="1" fill="#BE87FF"/>
<rect x="104" y="18" width="2" height="4" rx="1" fill="#BE87FF"/>
<rect x="108" y="18" width="2" height="4" rx="1" fill="#BE87FF"/>
<rect x="112" y="18" width="2" height="4" rx="1" fill="#BE87FF"/>
<rect x="116" y="18" width="2" height="4" rx="1" fill="#BE87FF"/>
<rect x="120" y="10" width="2" height="20" rx="1" fill="#BE87FF"/>
<rect x="124" y="10" width="2" height="20" rx="1" fill="#BE87FF"/>
<rect x="128" y="10" width="2" height="20" rx="1" fill="#BE87FF"/>
<rect x="132" y="7" width="2" height="26" rx="1" fill="#BE87FF"/>
<rect x="136" y="7" width="2" height="26" rx="1" fill="#BE87FF"/>
<rect x="140" y="5.5" width="2" height="29" rx="1" fill="#BE87FF"/>
<rect x="144" y="7" width="2" height="26" rx="1" fill="#BE87FF"/>
<rect x="148" y="10" width="2" height="20" rx="1" fill="#BE87FF"/>
<rect x="152" y="10" width="2" height="20" rx="1" fill="#BE87FF"/>
<rect x="156" y="10" width="2" height="20" rx="1" fill="#BE87FF"/>
<rect x="160" y="8" width="2" height="24" rx="1" fill="#BE87FF"/>
<rect x="164" y="15" width="2" height="10" rx="1" fill="#BE87FF"/>
<rect x="168" y="15" width="2" height="10" rx="1" fill="#BE87FF"/>
<rect x="172" y="15" width="2" height="10" rx="1" fill="#BE87FF"/>
<rect x="176" y="15" width="2" height="10" rx="1" fill="#BE87FF"/>
<rect x="180" y="15" width="2" height="10" rx="1" fill="#BE87FF"/>
<rect x="184" y="15" width="2" height="10" rx="1" fill="#BE87FF"/>
<rect x="188" y="15" width="2" height="10" rx="1" fill="#BE87FF"/>
<rect x="192" y="15" width="2" height="10" rx="1" fill="#BE87FF"/>
<rect x="196" y="18" width="2" height="4" rx="1" fill="#BE87FF"/>
<rect x="200" y="18" width="2" height="4" rx="1" fill="#BE87FF"/>
<rect x="204" y="18" width="2" height="4" rx="1" fill="#BE87FF"/>
<rect x="208" y="18" width="2" height="4" rx="1" fill="#7C878E"/>
<rect x="212" y="18" width="2" height="4" rx="1" fill="#7C878E"/>
<rect x="216" y="18" width="2" height="4" rx="1" fill="#7C878E"/>
<rect x="220" y="15" width="2" height="10" rx="1" fill="#7C878E"/>
<rect x="224" y="15" width="2" height="10" rx="1" fill="#7C878E"/>
<rect x="228" y="12" width="2" height="16" rx="1" fill="#7C878E"/>
<rect x="232" y="10" width="2" height="20" rx="1" fill="#7C878E"/>
<rect x="236" y="10" width="2" height="20" rx="1" fill="#7C878E"/>
<rect x="240" y="10" width="2" height="20" rx="1" fill="#7C878E"/>
<rect x="244" y="8" width="2" height="24" rx="1" fill="#7C878E"/>
<rect x="248" y="4" width="2" height="32" rx="1" fill="#7C878E"/>
<rect x="252" y="15.5" width="2" height="9" rx="1" fill="#7C878E"/>
<rect x="256" y="11" width="2" height="18" rx="1" fill="#7C878E"/>
<rect x="260" y="14" width="2" height="12" rx="1" fill="#7C878E"/>
<rect x="264" y="11" width="2" height="18" rx="1" fill="#7C878E"/>
<rect x="268" y="4" width="2" height="32" rx="1" fill="#7C878E"/>
<rect x="272" y="9.5" width="2" height="21" rx="1" fill="#7C878E"/>
<rect x="276" y="4" width="2" height="32" rx="1" fill="#7C878E"/>
<rect x="280" y="0.5" width="2" height="39" rx="1" fill="#7C878E"/>
<rect x="284" y="4" width="2" height="32" rx="1" fill="#7C878E"/>
<rect x="288" y="4" width="2" height="32" rx="1" fill="#7C878E"/>
<rect x="292" width="2" height="40" rx="1" fill="#7C878E"/>
<rect x="296" y="6" width="2" height="28" rx="1" fill="#7C878E"/>
<rect x="300" y="3.5" width="2" height="33" rx="1" fill="#7C878E"/>
<rect x="304" y="3.5" width="2" height="33" rx="1" fill="#7C878E"/>
<rect x="308" y="12" width="2" height="16" rx="1" fill="#7C878E"/>
<rect x="312" y="8" width="2" height="24" rx="1" fill="#7C878E"/>
<rect x="316" y="12" width="2" height="16" rx="1" fill="#7C878E"/>
<rect x="320" y="13.5" width="2" height="13" rx="1" fill="#7C878E"/>
<rect x="324" y="6" width="2" height="28" rx="1" fill="#7C878E"/>
<rect x="328" y="6" width="2" height="28" rx="1" fill="#7C878E"/>
<rect x="332" y="10" width="2" height="20" rx="1" fill="#7C878E"/>
<rect x="336" y="10" width="2" height="20" rx="1" fill="#7C878E"/>
<rect x="340" y="7" width="2" height="26" rx="1" fill="#7C878E"/>
<rect x="344" y="10" width="2" height="20" rx="1" fill="#7C878E"/>
<rect x="348" y="10" width="2" height="20" rx="1" fill="#7C878E"/>
<path d="M352 8C352 7.44772 352.448 7 353 7C353.552 7 354 7.44772 354 8V32C354 32.5523 353.552 33 353 33C352.448 33 352 32.5523 352 32V8Z" fill="#7C878E"/>
<rect x="356" y="9.5" width="2" height="21" rx="1" fill="#7C878E"/>
<rect x="360" y="4" width="2" height="32" rx="1" fill="#7C878E"/>
<rect x="364" y="10" width="2" height="20" rx="1" fill="#7C878E"/>
<rect x="368" y="10" width="2" height="20" rx="1" fill="#7C878E"/>
<rect x="372" y="10" width="2" height="20" rx="1" fill="#7C878E"/>
<rect x="376" y="10" width="2" height="20" rx="1" fill="#7C878E"/>
<rect x="380" y="12" width="2" height="16" rx="1" fill="#7C878E"/>
<rect x="384" y="12" width="2" height="16" rx="1" fill="#7C878E"/>
<rect x="388" y="15" width="2" height="10" rx="1" fill="#7C878E"/>
<rect x="392" y="15" width="2" height="10" rx="1" fill="#7C878E"/>
<rect x="396" y="15" width="2" height="10" rx="1" fill="#7C878E"/>
<rect x="400" y="10.5" width="2" height="19" rx="1" fill="#7C878E"/>
<rect x="404" y="15" width="2" height="10" rx="1" fill="#7C878E"/>
<rect x="408" y="15" width="2" height="10" rx="1" fill="#7C878E"/>
<rect x="412" y="15" width="2" height="10" rx="1" fill="#7C878E"/>
<rect x="416" y="12" width="2" height="16" rx="1" fill="#7C878E"/>
<rect x="420" y="18" width="2" height="4" rx="1" fill="#7C878E"/>
<rect x="424" y="18" width="2" height="4" rx="1" fill="#7C878E"/>
<rect x="428" y="18" width="2" height="4" rx="1" fill="#7C878E"/>
<rect x="432" y="18" width="2" height="4" rx="1" fill="#7C878E"/>
<rect x="436" y="18" width="2" height="4" rx="1" fill="#7C878E"/>
<rect x="440" y="18" width="2" height="4" rx="1" fill="#7C878E"/>
<rect x="444" y="18" width="2" height="4" rx="1" fill="#7C878E"/>
<rect x="448" y="18" width="2" height="4" rx="1" fill="#7C878E"/>
<rect x="452" y="18" width="2" height="4" rx="1" fill="#7C878E"/>
<rect x="456" y="18" width="2" height="4" rx="1" fill="#7C878E"/>
<rect x="460" y="18" width="2" height="4" rx="1" fill="#7C878E"/>
<rect x="464" y="18" width="2" height="4" rx="1" fill="#7C878E"/>
<rect x="468" y="18" width="2" height="4" rx="1" fill="#7C878E"/>
<rect x="472" y="18" width="2" height="4" rx="1" fill="#7C878E"/>
<rect x="476" y="18" width="2" height="4" rx="1" fill="#7C878E"/>
<rect x="480" y="18" width="2" height="4" rx="1" fill="#7C878E"/>
<rect x="484" y="18" width="2" height="4" rx="1" fill="#7C878E"/>
<rect x="488" y="18" width="2" height="4" rx="1" fill="#7C878E"/>
<rect x="492" y="18" width="2" height="4" rx="1" fill="#7C878E"/>
<rect x="496" y="18" width="2" height="4" rx="1" fill="#7C878E"/>
<rect x="500" y="18" width="2" height="4" rx="1" fill="#7C878E"/>
<rect x="504" y="19" width="2" height="2" rx="1" fill="#7C878E"/>
<rect x="508" y="19" width="2" height="2" rx="1" fill="#7C878E"/>
<rect x="512" y="19" width="2" height="2" rx="1" fill="#7C878E"/>
<rect x="516" y="19" width="2" height="2" rx="1" fill="#7C878E"/>
<rect x="520" y="19" width="2" height="2" rx="1" fill="#7C878E"/>
<rect x="524" y="19" width="2" height="2" rx="1" fill="#7C878E"/>
<rect x="528" y="19" width="2" height="2" rx="1" fill="#7C878E"/>
<rect x="532" y="19" width="2" height="2" rx="1" fill="#7C878E"/>
<rect x="536" y="19" width="2" height="2" rx="1" fill="#7C878E"/>
<rect x="540" y="19" width="2" height="2" rx="1" fill="#7C878E"/>
<rect x="544" y="19" width="2" height="2" rx="1" fill="#7C878E"/>
<rect x="548" y="19" width="2" height="2" rx="1" fill="#7C878E"/>
<rect x="552" y="19" width="2" height="2" rx="1" fill="#7C878E"/>
<rect x="556" y="19" width="2" height="2" rx="1" fill="#7C878E"/>
<rect x="560" y="19.5" width="2" height="1" rx="0.5" fill="#7C878E"/>
<rect x="564" y="19.5" width="2" height="1" rx="0.5" fill="#7C878E"/>
<rect x="568" y="19.5" width="2" height="1" rx="0.5" fill="#7C878E"/>
<rect x="572" y="19.5" width="2" height="1" rx="0.5" fill="#7C878E"/>
<rect x="576" y="19.5" width="2" height="1" rx="0.5" fill="#7C878E"/>
<rect x="580" y="19.5" width="2" height="1" rx="0.5" fill="#7C878E"/>
<rect x="584" y="19.5" width="2" height="1" rx="0.5" fill="#7C878E"/>
<rect x="588" y="19.5" width="2" height="1" rx="0.5" fill="#7C878E"/>
<rect x="592" y="19.5" width="2" height="1" rx="0.5" fill="#7C878E"/>
<rect x="596" y="8.5" width="2" height="23" rx="1" fill="#7C878E"/>
<rect x="600" y="8.5" width="2" height="23" rx="1" fill="#7C878E"/>
<rect x="604" y="8.5" width="2" height="23" rx="1" fill="#7C878E"/>
<rect x="608" y="14.5" width="2" height="11" rx="1" fill="#7C878E"/>
<rect x="612" y="14.5" width="2" height="11" rx="1" fill="#7C878E"/>
<rect x="616" y="14.5" width="2" height="11" rx="1" fill="#7C878E"/>
<rect x="620" y="14.5" width="2" height="11" rx="1" fill="#7C878E"/>
<rect x="624" y="14.5" width="2" height="11" rx="1" fill="#7C878E"/>
<rect x="628" y="14.5" width="2" height="11" rx="1" fill="#7C878E"/>
<rect x="632" y="14.5" width="2" height="11" rx="1" fill="#7C878E"/>
<rect x="636" y="8.5" width="2" height="23" rx="1" fill="#7C878E"/>
<rect x="640" y="8.5" width="2" height="23" rx="1" fill="#7C878E"/>
<rect x="644" y="8.5" width="2" height="23" rx="1" fill="#7C878E"/>
<rect x="648" y="4.5" width="2" height="31" rx="1" fill="#7C878E"/>
<rect x="652" y="8.5" width="2" height="23" rx="1" fill="#7C878E"/>
<rect x="656" y="8.5" width="2" height="23" rx="1" fill="#7C878E"/>
<rect x="660" y="8.5" width="2" height="23" rx="1" fill="#7C878E"/>
<rect x="664" y="8.5" width="2" height="23" rx="1" fill="#7C878E"/>
<rect x="668" y="0.5" width="2" height="39" rx="1" fill="#7C878E"/>
<rect x="672" y="8.5" width="2" height="23" rx="1" fill="#7C878E"/>
<rect x="676" y="0.5" width="2" height="39" rx="1" fill="#7C878E"/>
<rect x="680" y="0.5" width="2" height="39" rx="1" fill="#7C878E"/>
<rect x="684" y="14.5" width="2" height="11" rx="1" fill="#7C878E"/>
<rect x="688" y="14.5" width="2" height="11" rx="1" fill="#7C878E"/>
<rect x="692" y="6.5" width="2" height="27" rx="1" fill="#7C878E"/>
<rect x="696" y="14.5" width="2" height="11" rx="1" fill="#7C878E"/>
<rect x="700" y="14.5" width="2" height="11" rx="1" fill="#7C878E"/>
<rect x="704" y="8.5" width="2" height="23" rx="1" fill="#7C878E"/>
<rect x="708" y="8.5" width="2" height="23" rx="1" fill="#7C878E"/>
<rect x="712" y="8.5" width="2" height="23" rx="1" fill="#7C878E"/>
<rect x="716" y="12.5" width="2" height="15" rx="1" fill="#7C878E"/>
<rect x="720" y="8.5" width="2" height="23" rx="1" fill="#7C878E"/>
<rect x="724" y="11.5" width="2" height="17" rx="1" fill="#7C878E"/>
<rect x="728" y="11.5" width="2" height="17" rx="1" fill="#7C878E"/>
<rect x="732" y="11.5" width="2" height="17" rx="1" fill="#7C878E"/>
<rect x="736" y="11.5" width="2" height="17" rx="1" fill="#7C878E"/>
<rect x="740" y="19.5" width="2" height="1" rx="0.5" fill="#7C878E"/>
<rect x="744" y="19.5" width="2" height="1" rx="0.5" fill="#7C878E"/>
<rect x="748" y="19.5" width="2" height="1" rx="0.5" fill="#7C878E"/>
<rect x="752" y="19.5" width="2" height="1" rx="0.5" fill="#7C878E"/>
<rect x="756" y="19.5" width="2" height="1" rx="0.5" fill="#7C878E"/>
<rect x="760" y="19.5" width="2" height="1" rx="0.5" fill="#7C878E"/>
<rect x="764" y="19.5" width="2" height="1" rx="0.5" fill="#7C878E"/>
<rect x="768" y="19.5" width="2" height="1" rx="0.5" fill="#7C878E"/>
<rect x="772" y="19.5" width="2" height="1" rx="0.5" fill="#7C878E"/>
<rect x="776" y="19.5" width="2" height="1" rx="0.5" fill="#7C878E"/>
<rect x="780" y="19.5" width="2" height="1" rx="0.5" fill="#7C878E"/>
<rect x="784" y="19.5" width="2" height="1" rx="0.5" fill="#7C878E"/>
<rect x="788" y="19.5" width="2" height="1" rx="0.5" fill="#7C878E"/>
<rect x="792" y="19.5" width="2" height="1" rx="0.5" fill="#7C878E"/>
<rect x="796" y="19.5" width="2" height="1" rx="0.5" fill="#7C878E"/>
<rect x="800" y="19.5" width="2" height="1" rx="0.5" fill="#7C878E"/>
<rect x="804" y="19.5" width="2" height="1" rx="0.5" fill="#7C878E"/>
<rect x="808" y="19.5" width="2" height="1" rx="0.5" fill="#7C878E"/>
<rect x="812" y="19.5" width="2" height="1" rx="0.5" fill="#7C878E"/>
<rect x="816" y="19.5" width="2" height="1" rx="0.5" fill="#7C878E"/>
<rect x="820" y="19.5" width="2" height="1" rx="0.5" fill="#7C878E"/>
<rect x="824" y="19.5" width="2" height="1" rx="0.5" fill="#7C878E"/>
<rect x="828" y="19.5" width="2" height="1" rx="0.5" fill="#7C878E"/>
<rect x="832" y="19.5" width="2" height="1" rx="0.5" fill="#7C878E"/>
<rect x="836" y="19.5" width="2" height="1" rx="0.5" fill="#7C878E"/>
<rect x="840" y="19.5" width="2" height="1" rx="0.5" fill="#7C878E"/>
<rect x="844" y="19.5" width="2" height="1" rx="0.5" fill="#7C878E"/>
<rect x="848" y="19.5" width="2" height="1" rx="0.5" fill="#7C878E"/>
<rect x="852" y="19.5" width="2" height="1" rx="0.5" fill="#7C878E"/>
<rect x="856" y="19.5" width="2" height="1" rx="0.5" fill="#7C878E"/>
<rect x="860" y="19.5" width="2" height="1" rx="0.5" fill="#7C878E"/>
<rect x="864" y="19.5" width="2" height="1" rx="0.5" fill="#7C878E"/>
<rect x="868" y="19.5" width="2" height="1" rx="0.5" fill="#7C878E"/>
<rect x="872" y="19.5" width="2" height="1" rx="0.5" fill="#7C878E"/>
<rect x="876" y="19.5" width="2" height="1" rx="0.5" fill="#7C878E"/>
<rect x="880" y="19.5" width="2" height="1" rx="0.5" fill="#7C878E"/>
</svg>
