<svg width="20" height="20" viewBox="0 0 20 20" fill="none" xmlns="http://www.w3.org/2000/svg">
<path d="M13.2784 1.36719C13.1547 1.04537 12.8455 0.833008 12.5006 0.833008C12.1558 0.833008 11.8466 1.04537 11.7229 1.36719L10.7407 3.92087C10.4903 4.57174 10.4117 4.7593 10.3041 4.91063C10.1961 5.06247 10.0634 5.19513 9.91161 5.3031C9.76028 5.4107 9.57272 5.48937 8.92185 5.7397L6.36817 6.72189C6.04634 6.84567 5.83398 7.15486 5.83398 7.49967C5.83398 7.84448 6.04634 8.15368 6.36817 8.27746L8.92185 9.25965C9.57272 9.50998 9.76028 9.58865 9.91161 9.69625C10.0634 9.80422 10.1961 9.93688 10.3041 10.0887C10.4117 10.24 10.4903 10.4276 10.7407 11.0785L11.7229 13.6322C11.8466 13.954 12.1558 14.1663 12.5007 14.1663C12.8455 14.1663 13.1547 13.954 13.2784 13.6322L14.2606 11.0785C14.511 10.4276 14.5896 10.24 14.6972 10.0887C14.8052 9.93688 14.9379 9.80422 15.0897 9.69625C15.241 9.58865 15.4286 9.50998 16.0795 9.25965L18.6331 8.27746C18.955 8.15368 19.1673 7.84448 19.1673 7.49967C19.1673 7.15486 18.955 6.84567 18.6331 6.72189L16.0794 5.7397C15.4286 5.48937 15.241 5.4107 15.0897 5.3031C14.9379 5.19513 14.8052 5.06247 14.6972 4.91063C14.5896 4.7593 14.511 4.57174 14.2606 3.92087L13.2784 1.36719Z" fill="#FCFDFE"/>
<path d="M6.16267 10.4603C6.02151 10.178 5.73296 9.99967 5.41732 9.99967C5.10167 9.99967 4.81312 10.178 4.67196 10.4603L4.01825 11.7678C3.78284 12.2386 3.71111 12.3741 3.62395 12.4871C3.53653 12.6005 3.43485 12.7022 3.32144 12.7896C3.20836 12.8768 3.07288 12.9485 2.60207 13.1839L1.29464 13.8377C1.01232 13.9788 0.833984 14.2674 0.833984 14.583C0.833984 14.8987 1.01232 15.1872 1.29464 15.3284L2.60207 15.9821C3.07288 16.2175 3.20836 16.2892 3.32144 16.3764C3.43485 16.4638 3.53653 16.5655 3.62395 16.6789C3.71111 16.792 3.78284 16.9274 4.01825 17.3983L4.67196 18.7057C4.81312 18.988 5.10167 19.1663 5.41732 19.1663C5.73296 19.1663 6.02151 18.988 6.16267 18.7057L6.81639 17.3983C7.05179 16.9274 7.12353 16.792 7.21069 16.6789C7.29811 16.5655 7.39978 16.4638 7.5132 16.3764C7.62627 16.2892 7.76176 16.2175 8.23256 15.9821L9.53999 15.3284C9.82231 15.1872 10.0007 14.8987 10.0007 14.583C10.0007 14.2674 9.82231 13.9788 9.53999 13.8377L8.23256 13.1839C7.76176 12.9485 7.62627 12.8768 7.5132 12.7896C7.39978 12.7022 7.29811 12.6005 7.21069 12.4871C7.12353 12.3741 7.05179 12.2386 6.81639 11.7678L6.16267 10.4603Z" fill="#FCFDFE"/>
</svg>
