<svg width="48" height="48" viewBox="0 0 48 48" fill="none" xmlns="http://www.w3.org/2000/svg">
<g clip-path="url(#clip0_952_55494)">
<rect width="48" height="48" fill="#292D32"/>
<path fill-rule="evenodd" clip-rule="evenodd" d="M37.2194 21.7878C40.2788 21.7878 42.759 19.3138 42.759 16.2621C42.759 13.2103 40.2788 10.7363 37.2194 10.7363C34.1599 10.7363 31.6797 13.2103 31.6797 16.2621C31.6797 19.3138 34.1599 21.7878 37.2194 21.7878Z" fill="#1F82FF"/>
<path fill-rule="evenodd" clip-rule="evenodd" d="M37.5905 24.7027C37.3472 24.7246 37.1008 24.7358 36.8518 24.7358C32.3646 24.7358 28.727 21.1073 28.727 16.6313C28.727 15.1523 29.1242 13.7657 29.818 12.5721L26.6246 10.8392C25.1722 10.051 23.4183 10.051 21.9658 10.8392L13.5455 15.4084C11.9766 16.2598 11 17.8989 11 19.6806V28.3282C11 30.1099 11.9766 31.749 13.5455 32.6003L21.9658 37.1696C23.4183 37.9577 25.1722 37.9577 26.6246 37.1696L35.0449 32.6003C36.6138 31.749 37.5905 30.1099 37.5905 28.3282V24.7027Z" fill="#FCFDFE"/>
</g>
<defs>
<clipPath id="clip0_952_55494">
<rect width="48" height="48" fill="white"/>
</clipPath>
</defs>
</svg>
