<svg width="30" height="30" viewBox="0 0 30 30" fill="none" xmlns="http://www.w3.org/2000/svg">
<path fill-rule="evenodd" clip-rule="evenodd" d="M14.9997 0.333496C6.8995 0.333496 0.333008 6.89999 0.333008 15.0002C0.333008 23.1003 6.8995 29.6668 14.9997 29.6668C23.0998 29.6668 29.6663 23.1003 29.6663 15.0002C29.6663 6.89999 23.0998 0.333496 14.9997 0.333496ZM8.72353 14.0574L14.0569 8.72402C14.5776 8.20332 15.4218 8.20332 15.9425 8.72402L21.2758 14.0574C21.7965 14.5781 21.7965 15.4223 21.2758 15.943C20.7551 16.4637 19.9109 16.4637 19.3902 15.943L16.333 12.8858V20.3335C16.333 21.0699 15.7361 21.6668 14.9997 21.6668C14.2633 21.6668 13.6663 21.0699 13.6663 20.3335V12.8858L10.6091 15.943C10.0885 16.4637 9.24423 16.4637 8.72353 15.943C8.20283 15.4223 8.20283 14.5781 8.72353 14.0574Z" fill="url(#paint0_linear_596_54378)"/>
<defs>
<linearGradient id="paint0_linear_596_54378" x1="14.9997" y1="0.333496" x2="14.9997" y2="29.6668" gradientUnits="userSpaceOnUse">
<stop stop-color="#9A77FF"/>
<stop offset="1" stop-color="#735FFA"/>
</linearGradient>
</defs>
</svg>
