<svg xmlns="http://www.w3.org/2000/svg" width="32" height="32" fill="none" xmlns:v="https://vecta.io/nano"><path fill-rule="evenodd" d="M16.321 5.333h-7.31c-1.073 0-1.959 0-2.681.059-.749.061-1.438.193-2.086.522-1.004.511-1.819 1.327-2.331 2.331-.33.647-.461 1.336-.522 2.085-.059.722-.059 1.607-.059 2.681v5.977l.059 2.681c.061.75.193 1.438.522 2.085.511 1.004 1.327 1.82 2.331 2.331.647.33 1.336.461 2.086.522.722.059 1.607.059 2.681.059h7.31l2.681-.059c.75-.061 1.438-.193 2.085-.522 1.004-.511 1.82-1.327 2.331-2.331.33-.647.461-1.336.522-2.085.055-.669.059-1.48.059-2.45l2.605 2.605.725.689c.196.164.608.493 1.18.538a2 2 0 0 0 1.678-.695c.372-.436.431-.96.454-1.215.025-.285.025-.64.025-1v-8.282l-.025-1c-.023-.255-.082-.779-.454-1.215a2 2 0 0 0-1.678-.695c-.572.045-.984.374-1.18.538a12.2 12.2 0 0 0-.725.689L24 12.781l-.059-2.45c-.061-.749-.193-1.438-.522-2.085-.511-1.004-1.327-1.819-2.331-2.331-.647-.33-1.336-.461-2.085-.522-.722-.059-1.607-.059-2.681-.059z" fill="#fcfdfe"/></svg>