<svg width="112" height="32" viewBox="0 0 112 32" fill="none" xmlns="http://www.w3.org/2000/svg">
<g clip-path="url(#clip0_51_16413)">
<path d="M55.0666 5.79956C55.0666 7.05218 53.868 7.66775 52.302 7.66775C50.833 7.66775 50.0126 7.13862 49.6018 6.77136L50.2824 5.7131C50.7147 6.09079 51.4707 6.41513 52.3345 6.41513C53.0795 6.41513 53.5657 6.24222 53.5657 5.91788C53.5657 5.11898 49.7858 5.87496 49.7858 3.76888C49.7858 2.68917 50.7576 1.94361 52.3775 1.94361C53.7165 1.94361 54.516 2.47335 54.9262 2.84L54.2457 3.89886C53.803 3.52056 53.1659 3.19683 52.3235 3.19683C51.7944 3.19683 51.2867 3.32619 51.2867 3.64993C51.2867 4.42799 55.0666 3.66098 55.0666 5.79956ZM49.6343 2.05212L47.356 4.48194L49.7747 7.55982H47.9715L46.3946 5.50769L45.2713 6.70635V7.55982H43.7814V0H45.2713V4.92463L47.9065 2.05214L49.6343 2.05212ZM39.0512 4.80567C39.0512 5.80997 39.6993 6.37159 40.6386 6.37159C41.47 6.37159 42.0212 6.04787 42.4418 5.6481L43.1438 6.77135C42.7226 7.13861 42.0426 7.66774 40.6386 7.66774C38.8029 7.66774 37.5392 6.52303 37.5392 4.80567C37.5392 3.08832 38.8029 1.94361 40.6386 1.94361C42.0316 1.94361 42.7226 2.47335 43.1438 2.84L42.4418 3.96324C42.0212 3.56349 41.47 3.23975 40.6386 3.23975C39.6992 3.23975 39.0512 3.80137 39.0512 4.80567ZM35.5631 4.80567C35.5631 3.80137 34.969 3.23975 34.0511 3.23975C33.1112 3.23975 32.5171 3.80137 32.5171 4.80567C32.5171 5.80997 33.1112 6.37159 34.0511 6.37159C34.969 6.37159 35.5631 5.80997 35.5631 4.80567ZM37.0745 4.80567C37.0745 6.52304 35.8758 7.66774 34.0511 7.66774C32.2044 7.66774 31.0057 6.52303 31.0057 4.80567C31.0057 3.08832 32.2044 1.94361 34.0511 1.94361C35.8758 1.94361 37.0745 3.08892 37.0745 4.80567ZM28.8886 0H30.3681V7.55984H28.8886V0ZM25.6274 6.24223C26.4049 6.24223 26.7071 5.85351 26.7071 5.28085C26.7071 4.78422 26.3938 4.40592 25.6274 4.40592H22.2577V6.24223H25.6274ZM22.2577 1.31761V3.11039H25.2387C26.0272 3.11039 26.3509 2.84 26.3509 2.19253C26.3509 1.60883 26.0272 1.3176 25.2387 1.3176L22.2577 1.31761ZM28.2406 5.44272C28.2406 6.77136 27.3123 7.55984 25.8543 7.55984H20.7567V0H25.5195C27.0094 0 27.8629 0.723492 27.8629 2.0086C27.8629 2.93748 27.3441 3.46661 26.6967 3.69347C27.6685 3.93075 28.2406 4.55736 28.2406 5.44272ZM18.0676 6.12329L18.1755 7.3759C17.5059 7.62421 16.8904 7.66775 16.3833 7.66775C14.8818 7.66775 14.2662 6.85781 14.2662 5.60519V3.36913H13.802C11.577 3.36913 10.886 5.90746 10.886 7.26799V7.55984H9.40654V2.05213H10.886L10.8535 4.03927C11.1993 2.99144 12.0957 2.05213 13.7585 2.05213H14.2662V0.46414H15.7456V2.05213H18.0136V3.36913H15.7456V5.42126C15.7456 6.05829 15.8646 6.39306 16.5881 6.39306C16.9339 6.39306 17.517 6.32869 18.0676 6.12329ZM2.96997 4.77319H6.15578L4.55736 1.39302L2.96997 4.77319ZM3.7045 0H5.42187L9.12576 7.55984H7.46296L6.77136 6.0908H2.34398L1.65238 7.55984H0L3.7045 0Z" fill="black"/>
<path d="M111.159 13.9658H92.4944V17.2319H111.159V13.9658Z" fill="#FF0041"/>
<path d="M111.102 28.2822H92.4368V31.5483H111.102V28.2822Z" fill="#FF0041"/>
<path d="M111.102 21.124H92.4368V24.3901H111.102V21.124Z" fill="#FF0041"/>
<path d="M57.4765 20.4575L61.1344 18.5538C59.4293 15.5384 56.0675 13.7095 51.94 13.7095C45.637 13.7095 41.1391 17.5409 41.1391 22.8303C41.1391 28.1197 45.5383 32.0002 51.7425 32.0002C56.2656 32.0002 59.1325 30.27 60.9615 28.6881V21.891H50.6052V25.2276H57.2294V26.7598C56.0185 27.7488 54.1153 28.4656 51.7671 28.4656C48.084 28.4656 45.3654 26.2411 45.3654 22.8794C45.3654 19.4686 48.1582 17.2687 51.8412 17.2687C54.4611 17.2687 56.3397 18.5047 57.4765 20.4575ZM67.7837 13.932H63.6562V31.6783H67.7837V13.932ZM38.8154 31.6783V13.932H34.8117V25.8205L24.2819 13.932H20.1053V31.6783H24.109V19.197L35.182 31.6783L38.8154 31.6783ZM89.2867 31.6783V13.932H85.283V25.8205L74.7537 13.932H70.5765V31.6783H74.5808V19.197L85.6539 31.6783L89.2867 31.6783ZM63.6556 13.932V31.6783ZM34.8117 13.932V25.8205ZM17.2131 13.932H0.0100708V31.6783H17.2131V28.1443H4.06405V24.3625H15.8042V20.8775H4.06405V17.4667H17.2131L17.2131 13.932Z" fill="black"/>
</g>
<defs>
<clipPath id="clip0_51_16413">
<rect width="111.159" height="32" fill="white"/>
</clipPath>
</defs>
</svg>
