<svg width="40" height="40" viewBox="0 0 40 40" fill="none" xmlns="http://www.w3.org/2000/svg">
<path d="M34.414 4.45703L21.9219 13.7351L24.232 8.26117L34.414 4.45703Z" fill="#E2761B" stroke="#E2761B" stroke-width="0.125549" stroke-linecap="round" stroke-linejoin="round"/>
<path d="M5.57413 4.45703L17.9658 13.823L15.7687 8.26117L5.57413 4.45703ZM29.9181 25.9636L26.5911 31.0609L33.7097 33.0195L35.7562 26.0766L29.9181 25.9636ZM4.25586 26.0766L6.28976 33.0195L13.4084 31.0609L10.0813 25.9636L4.25586 26.0766Z" fill="#E4761B" stroke="#E4761B" stroke-width="0.125549" stroke-linecap="round" stroke-linejoin="round"/>
<path d="M13.0071 17.3506L11.0234 20.3512L18.0919 20.6651L17.8408 13.0693L13.0071 17.3506ZM26.9807 17.3506L22.0843 12.9814L21.9211 20.6651L28.977 20.3512L26.9807 17.3506ZM13.4089 31.0605L17.6524 28.989L13.9864 26.1265L13.4089 31.0605ZM22.3354 28.989L26.5915 31.0605L26.0015 26.1265L22.3354 28.989Z" fill="#E4761B" stroke="#E4761B" stroke-width="0.125549" stroke-linecap="round" stroke-linejoin="round"/>
<path d="M26.5909 31.0608L22.3348 28.9893L22.6737 31.7639L22.6361 32.9315L26.5909 31.0608ZM13.4082 31.0608L17.363 32.9315L17.3379 31.7639L17.6518 28.9893L13.4082 31.0608Z" fill="#D7C1B3" stroke="#D7C1B3" stroke-width="0.125549" stroke-linecap="round" stroke-linejoin="round"/>
<path d="M17.4272 24.2939L13.8867 23.2519L16.3851 22.1094L17.4272 24.2939ZM22.5622 24.2939L23.6042 22.1094L26.1152 23.2519L22.5622 24.2939Z" fill="#233447" stroke="#233447" stroke-width="0.125549" stroke-linecap="round" stroke-linejoin="round"/>
<path d="M13.4091 31.0609L14.0117 25.9636L10.082 26.0766L13.4091 31.0609ZM25.9891 25.9636L26.5918 31.0609L29.9188 26.0766L25.9891 25.9636ZM28.9772 20.3516L21.9213 20.6654L22.5742 24.2938L23.6162 22.1093L26.1272 23.2517L28.9772 20.3516ZM13.8862 23.2517L16.3972 22.1093L17.4267 24.2938L18.0921 20.6654L11.0237 20.3516L13.8862 23.2517Z" fill="#CD6116" stroke="#CD6116" stroke-width="0.125549" stroke-linecap="round" stroke-linejoin="round"/>
<path d="M11.0234 20.3516L13.9864 26.1268L13.886 23.2517L11.0234 20.3516ZM26.127 23.2517L26.0015 26.1268L28.977 20.3516L26.127 23.2517ZM18.0919 20.6654L17.4265 24.2938L18.2551 28.575L18.4434 22.9379L18.0919 20.6654ZM21.9211 20.6654L21.5821 22.9253L21.7328 28.575L22.574 24.2938L21.9211 20.6654Z" fill="#E4751F" stroke="#E4751F" stroke-width="0.125549" stroke-linecap="round" stroke-linejoin="round"/>
<path d="M22.5747 24.294L21.7335 28.5752L22.3362 28.9896L26.0022 26.127L26.1278 23.252L22.5747 24.294ZM13.8867 23.252L13.9872 26.127L17.6532 28.9896L18.2558 28.5752L17.4272 24.294L13.8867 23.252Z" fill="#F6851B" stroke="#F6851B" stroke-width="0.125549" stroke-linecap="round" stroke-linejoin="round"/>
<path d="M22.6361 32.9312L22.6737 31.7636L22.3599 31.4874H17.6267L17.3379 31.7636L17.363 32.9312L13.4082 31.0605L14.7892 32.1905L17.589 34.1365H22.3975L25.2098 32.1905L26.5909 31.0605L22.6361 32.9312Z" fill="#C0AD9E" stroke="#C0AD9E" stroke-width="0.125549" stroke-linecap="round" stroke-linejoin="round"/>
<path d="M22.3348 28.9895L21.7321 28.5752H18.2544L17.6518 28.9895L17.3379 31.7641L17.6267 31.4879H22.3599L22.6737 31.7641L22.3348 28.9895Z" fill="#161616" stroke="#161616" stroke-width="0.125549" stroke-linecap="round" stroke-linejoin="round"/>
<path d="M34.9401 14.3378L36.0073 9.21535L34.4128 4.45703L22.3349 13.4212L26.9803 17.3509L33.5465 19.2718L35.0029 17.5769L34.3751 17.125L35.3795 16.2084L34.6011 15.6058L35.6055 14.84L34.9401 14.3378ZM3.99219 9.21535L5.05936 14.3378L4.38139 14.84L5.38578 15.6058L4.61993 16.2084L5.62433 17.125L4.99658 17.5769L6.4404 19.2718L13.0066 17.3509L17.6519 13.4212L5.57411 4.45703L3.99219 9.21535Z" fill="#763D16" stroke="#763D16" stroke-width="0.125549" stroke-linecap="round" stroke-linejoin="round"/>
<path d="M33.5465 19.2714L26.9803 17.3505L28.9765 20.3511L26.001 26.1264L29.9181 26.0762H35.7562L33.5465 19.2714ZM13.0066 17.3505L6.44042 19.2714L4.25586 26.0762H10.0813L13.9859 26.1264L11.023 20.3511L13.0066 17.3505ZM21.9206 20.665L22.335 13.4208L24.2433 8.26074H15.7687L17.652 13.4208L18.0914 20.665L18.242 22.95L18.2546 28.5746H21.7323L21.7574 22.95L21.9206 20.665Z" fill="#F6851B" stroke="#F6851B" stroke-width="0.125549" stroke-linecap="round" stroke-linejoin="round"/>
</svg>
