<svg width="48" height="48" viewBox="0 0 48 48" fill="none" xmlns="http://www.w3.org/2000/svg">
<rect width="48" height="48" fill="#181B1F"/>
<g clip-path="url(#clip0_952_55467)">
<path d="M37.3713 21.1701C37.7212 20.1193 37.8426 19.0058 37.7273 17.9043C37.612 16.8028 37.2628 15.7386 36.703 14.783C35.8731 13.3376 34.6054 12.1932 33.0829 11.5149C31.5604 10.8367 29.8618 10.6597 28.2322 11.0095C27.4972 10.1811 26.5936 9.51927 25.5821 9.06833C24.5706 8.61739 23.4744 8.38772 22.367 8.39469C20.7008 8.39066 19.0764 8.91586 17.728 9.89455C16.3796 10.8732 15.3768 12.2549 14.8642 13.8402C13.7788 14.0624 12.7534 14.5139 11.8566 15.1645C10.9598 15.815 10.2123 16.6497 9.66422 17.6125C8.8277 19.054 8.47063 20.7238 8.64449 22.3813C8.81836 24.0388 9.51418 25.5982 10.6316 26.8347C10.2817 27.8855 10.1604 28.9989 10.2756 30.1004C10.3909 31.202 10.7401 32.2661 11.2999 33.2218C12.1299 34.6671 13.3976 35.8115 14.92 36.4897C16.4425 37.1679 18.1411 37.345 19.7707 36.9953C20.5057 37.8237 21.4093 38.4855 22.4208 38.9364C23.4323 39.3874 24.5285 39.617 25.6359 39.6101C27.3029 39.6144 28.9281 39.089 30.2771 38.1097C31.626 37.1304 32.629 35.7478 33.1411 34.1615C34.2266 33.9393 35.252 33.4878 36.1488 32.8372C37.0456 32.1866 37.793 31.352 38.3411 30.3891C39.1766 28.9478 39.5329 27.2784 39.3586 25.6216C39.1843 23.9647 38.4884 22.406 37.3713 21.1701ZM25.6384 37.5695C24.27 37.5713 22.9445 37.0921 21.8938 36.2156C21.9411 36.1898 22.0242 36.1442 22.0784 36.111L28.2938 32.5208C28.4498 32.4321 28.5793 32.3034 28.6691 32.148C28.7589 31.9925 28.8056 31.816 28.8045 31.6365V22.8741L31.4316 24.391C31.4454 24.3979 31.4573 24.408 31.4662 24.4206C31.4751 24.4331 31.4808 24.4477 31.4827 24.463V31.7196C31.4807 33.2695 30.8645 34.7555 29.7691 35.852C28.6737 36.9484 27.1883 37.566 25.6384 37.5695ZM13.0698 32.2015C12.3843 31.0172 12.1373 29.6295 12.3719 28.2815C12.4181 28.3091 12.4987 28.3584 12.5565 28.3916L18.7719 31.9818C18.9268 32.0723 19.103 32.12 19.2824 32.12C19.4618 32.12 19.6379 32.0723 19.7928 31.9818L27.3811 27.6002V30.6341C27.382 30.6496 27.379 30.665 27.3725 30.6791C27.3659 30.6932 27.356 30.7054 27.3436 30.7147L21.0605 34.3424C19.7166 35.1164 18.1205 35.3257 16.6224 34.9243C15.1244 34.5229 13.8467 33.5437 13.0698 32.2015ZM11.4347 18.6328C12.1171 17.447 13.195 16.539 14.4796 16.0679C14.4796 16.1215 14.4765 16.2162 14.4765 16.2821V23.4624C14.4754 23.6417 14.5221 23.8181 14.6118 23.9734C14.7014 24.1287 14.8308 24.2573 14.9867 24.3461L22.575 28.727L19.9479 30.2439C19.9349 30.2525 19.9201 30.2576 19.9046 30.259C19.8891 30.2604 19.8736 30.258 19.8593 30.2519L13.5756 26.6211C12.234 25.8442 11.2553 24.567 10.8539 23.0695C10.4526 21.5721 10.6614 19.9766 11.4347 18.6328ZM33.0187 23.6556L25.4304 19.2741L28.0575 17.7578C28.0704 17.7492 28.0853 17.744 28.1008 17.7426C28.1162 17.7412 28.1318 17.7437 28.1461 17.7498L34.4298 21.3775C35.3924 21.9335 36.1768 22.7524 36.6909 23.7381C37.2051 24.7238 37.4277 25.8355 37.3329 26.9432C37.238 28.0509 36.8296 29.1086 36.1553 29.9926C35.4811 30.8765 34.569 31.5501 33.5258 31.9344C33.5258 31.8802 33.5258 31.7855 33.5258 31.7196V24.5393C33.5272 24.3603 33.481 24.1841 33.3919 24.0288C33.3028 23.8735 33.174 23.7447 33.0187 23.6556ZM35.6335 19.7202C35.5873 19.6919 35.5067 19.6433 35.4488 19.6101L29.2335 16.0199C29.0785 15.9295 28.9024 15.8819 28.723 15.8819C28.5436 15.8819 28.3675 15.9295 28.2125 16.0199L20.6242 20.4015V17.3676C20.6234 17.3521 20.6263 17.3367 20.6329 17.3226C20.6394 17.3085 20.6493 17.2963 20.6618 17.287L26.9448 13.6624C27.9074 13.1073 29.0081 12.8379 30.1182 12.8855C31.2283 12.9332 32.3019 13.296 33.2133 13.9315C34.1248 14.567 34.8364 15.4489 35.265 16.474C35.6936 17.4991 35.8214 18.6251 35.6335 19.7202ZM19.1959 25.1276L16.5682 23.6107C16.5544 23.6038 16.5426 23.5937 16.5337 23.5811C16.5247 23.5685 16.5191 23.554 16.5171 23.5387V16.2821C16.5179 15.1706 16.8352 14.0824 17.4319 13.1447C18.0286 12.2071 18.8801 11.4588 19.8866 10.9875C20.8932 10.5162 22.0132 10.3413 23.1155 10.4834C24.2178 10.6255 25.2569 11.0786 26.111 11.7898C26.0636 11.8156 25.9811 11.8611 25.9264 11.8944L19.711 15.4845C19.555 15.5732 19.4255 15.7018 19.3357 15.8571C19.246 16.0124 19.1992 16.1888 19.2002 16.3682L19.1959 25.1276ZM20.623 22.0507L24.0027 20.0987L27.3824 22.0495V25.9522L24.0027 27.903L20.623 25.9522V22.0507Z" fill="#FCFDFE"/>
</g>
<defs>
<clipPath id="clip0_952_55467">
<rect width="32" height="32" fill="white" transform="translate(8 8)"/>
</clipPath>
</defs>
</svg>
