<svg width="48" height="48" viewBox="0 0 48 48" fill="none" xmlns="http://www.w3.org/2000/svg">
<g clip-path="url(#clip0_952_55440)">
<rect width="48" height="48" fill="#181B1F"/>
<g clip-path="url(#clip1_952_55440)">
<path d="M15.3551 28.658C15.3551 30.4974 13.8685 31.984 12.0291 31.984C10.1897 31.984 8.70312 30.4974 8.70312 28.658C8.70312 26.8186 10.1897 25.332 12.0291 25.332H15.3551V28.658ZM17.0181 28.658C17.0181 26.8186 18.5047 25.332 20.3441 25.332C22.1834 25.332 23.6701 26.8186 23.6701 28.658V36.973C23.6701 38.8123 22.1834 40.299 20.3441 40.299C18.5047 40.299 17.0181 38.8123 17.0181 36.973V28.658Z" fill="#E01E5A"/>
<path d="M20.3458 15.3043C18.5065 15.3043 17.0198 13.8177 17.0198 11.9783C17.0198 10.139 18.5065 8.65234 20.3458 8.65234C22.1852 8.65234 23.6718 10.139 23.6718 11.9783V15.3043H20.3458ZM20.3458 16.9925C22.1852 16.9925 23.6718 18.4791 23.6718 20.3185C23.6718 22.1579 22.1852 23.6445 20.3458 23.6445H12.0057C10.1663 23.6445 8.67969 22.1579 8.67969 20.3185C8.67969 18.4791 10.1663 16.9925 12.0057 16.9925H20.3458Z" fill="#36C5F0"/>
<path d="M33.6743 20.3185C33.6743 18.4791 35.1609 16.9925 37.0003 16.9925C38.8397 16.9925 40.3263 18.4791 40.3263 20.3185C40.3263 22.1579 38.8397 23.6445 37.0003 23.6445H33.6743V20.3185ZM32.0113 20.3185C32.0113 22.1579 30.5247 23.6445 28.6854 23.6445C26.846 23.6445 25.3594 22.1579 25.3594 20.3185V11.9783C25.3594 10.139 26.846 8.65234 28.6854 8.65234C30.5247 8.65234 32.0113 10.139 32.0113 11.9783V20.3185Z" fill="#2EB67D"/>
<path d="M28.6854 33.647C30.5247 33.647 32.0113 35.1336 32.0113 36.973C32.0113 38.8123 30.5247 40.299 28.6854 40.299C26.846 40.299 25.3594 38.8123 25.3594 36.973V33.647H28.6854ZM28.6854 31.984C26.846 31.984 25.3594 30.4974 25.3594 28.658C25.3594 26.8186 26.846 25.332 28.6854 25.332H37.0255C38.8649 25.332 40.3515 26.8186 40.3515 28.658C40.3515 30.4974 38.8649 31.984 37.0255 31.984H28.6854Z" fill="#ECB22E"/>
</g>
</g>
<defs>
<clipPath id="clip0_952_55440">
<rect width="48" height="48" fill="white"/>
</clipPath>
<clipPath id="clip1_952_55440">
<rect width="32" height="32" fill="white" transform="translate(8.5 8.5)"/>
</clipPath>
</defs>
</svg>
