<svg width="40" height="40" viewBox="0 0 40 40" fill="none" xmlns="http://www.w3.org/2000/svg">
<rect width="40" height="40" rx="20" fill="url(#paint0_linear_746_20839)"/>
<path d="M32 12.6008C31.1 13.0008 30.2 13.3008 29.2 13.4008C30.2 12.8008 31 11.8008 31.4 10.7008C30.4 11.3008 29.4 11.7008 28.3 11.9008C27.4 10.9008 26.1 10.3008 24.7 10.3008C22 10.3008 19.8 12.5008 19.8 15.2008C19.8 15.6008 19.8 16.0008 19.9 16.3008C15.7 16.1008 12.1 14.1008 9.7 11.1008C9.2 11.9008 9 12.7008 9 13.6008C9 15.3008 9.9 16.8008 11.2 17.7008C10.4 17.7008 9.6 17.5008 9 17.1008C9 17.1008 9 17.1008 9 17.2008C9 19.6008 10.7 21.6008 12.9 22.0008C12.5 22.1008 12.1 22.2008 11.6 22.2008C11.3 22.2008 11 22.2008 10.7 22.1008C11.3 24.1008 13.1 25.5008 15.3 25.5008C13.6 26.8008 11.5 27.6008 9.2 27.6008C8.8 27.6008 8.4 27.6008 8 27.5008C10.2 28.9008 12.8 29.7008 15.5 29.7008C24.6 29.7008 29.5 22.2008 29.5 15.7008C29.5 15.5008 29.5 15.3008 29.5 15.1008C30.5 14.4008 31.3 13.5008 32 12.6008Z" fill="#FCFDFE"/>
<defs>
<linearGradient id="paint0_linear_746_20839" x1="20" y1="0" x2="20" y2="40" gradientUnits="userSpaceOnUse">
<stop stop-color="#42B4FF"/>
<stop offset="1" stop-color="#1C9CF0"/>
</linearGradient>
</defs>
</svg>
